<svg width="154" height="32" viewBox="0 0 154 32" fill="none" xmlns="http://www.w3.org/2000/svg">
<g clip-path="url(#clip0_2005_10543)">
<path d="M85.1399 3.01646L88.5808 3.00885C88.5177 5.60038 88.5831 8.37095 88.5628 10.9883C88.6169 10.917 88.6711 10.846 88.7267 10.7755C89.6494 9.59754 91.0307 8.89422 92.509 8.74969C100.301 7.98793 102.35 17.9614 98.3013 23.0879C98.2164 23.1827 98.1246 23.2683 98.0404 23.3598C96.0395 25.5308 92.4241 25.9625 89.9599 24.3459C89.4132 23.9876 89.0177 23.5538 88.5763 23.0448L88.5711 24.9852C87.5243 24.9491 86.1723 24.926 85.1361 24.9822C85.1083 24.0577 85.1151 23.0895 85.1256 22.1616C85.1971 15.7924 85.0218 9.38151 85.1399 3.01646ZM93.4866 22.2315C96.617 21.5431 97.2832 17.8666 96.6801 15.1886C96.0913 12.5732 94.401 11.4825 91.815 11.7325C88.3357 12.5189 88.1906 16.1255 88.6493 19.0311C88.9824 21.1389 91.257 22.7708 93.355 22.2707C93.3994 22.2601 93.4437 22.247 93.4866 22.2315Z" fill="white"/>
<path d="M122.196 8.74133C124.352 8.53115 125.989 9.19707 127.171 11.0296C127.373 10.8083 127.585 10.5967 127.806 10.3957C129.074 9.22201 130.763 8.61183 132.49 8.70467C134.994 8.82215 137.052 10.4246 137.429 12.9885C137.705 14.8667 137.569 17.1114 137.57 19.0389C137.571 20.97 137.657 23.0652 137.562 24.9822C136.621 24.9516 135.047 24.909 134.143 24.9897C134.088 22.175 134.17 19.3266 134.143 16.5046C134.124 14.4605 134.147 11.9957 131.404 11.914C129.659 11.862 128.501 12.9002 128.094 14.5497C127.887 15.4507 127.967 16.7239 127.968 17.6695L127.978 22.1221L127.985 24.9496C126.929 24.9888 125.504 24.8911 124.515 24.9885C124.431 22.6198 124.558 20.2047 124.508 17.822C124.463 15.7351 124.993 12.0775 121.955 11.902C119.46 11.8415 118.394 13.5736 118.341 15.8365C118.269 18.8821 118.455 21.9756 118.331 24.9834C117.202 24.9525 116.053 24.9646 114.917 24.9428C114.83 20.8927 114.953 16.8036 114.902 12.7499C114.886 11.5205 114.888 10.2475 114.934 9.01979L118.323 9.00957C118.382 9.54576 118.354 10.4088 118.351 10.971L118.387 10.9254C119.42 9.62749 120.524 8.9334 122.196 8.74133Z" fill="white"/>
<path d="M68.8872 9.03731C70.004 8.99734 71.1926 9.03633 72.3352 9.00403C72.3754 11.4088 72.2972 13.8292 72.3321 16.2366C72.352 17.6033 72.0728 20.3416 73.1 21.3612C74.8053 23.054 78.1287 21.9978 78.6189 19.6283C78.8979 18.2815 78.7941 16.7908 78.7926 15.4075C78.7723 13.2881 78.7783 11.1686 78.8099 9.0494C79.7371 8.97571 81.1914 9.02867 82.202 9.00576C82.2479 10.6849 82.208 12.5419 82.2065 14.2348C82.2065 17.7581 82.2712 21.4698 82.211 24.9776L78.7986 24.9439C78.7768 24.2907 78.7738 23.637 78.7889 22.9835C78.6219 23.2042 78.1918 23.659 77.991 23.8466C76.9188 24.8443 75.4961 25.3791 74.0313 25.3348C70.2183 25.1999 68.7622 22.2186 68.8508 18.7941C68.9344 15.5606 68.7706 12.2822 68.8872 9.03731Z" fill="white"/>
<path d="M59.3814 8.74041C62.1385 8.46781 64.9082 9.38507 66.6426 11.5976C65.8791 12.2385 65.1053 12.9622 64.3634 13.6351C64.2373 13.4956 64.1092 13.3581 63.979 13.2226C62.8455 12.0326 61.8209 11.4975 60.1449 11.4511C58.9436 11.4178 57.4437 11.9127 57.4271 13.3531C57.4395 14.7611 59.3941 14.9897 60.4251 15.22C62.2031 15.6171 64.4028 15.9447 65.7539 17.2642C67.4473 18.9178 67.0383 21.8731 65.3996 23.4284C63.9162 24.8363 62.2104 25.3097 60.1815 25.3127C57.4219 25.325 54.7816 24.2357 53.0739 22.0433C53.6738 21.4374 54.9191 20.504 55.5978 19.9773C55.9443 20.42 56.3764 20.8821 56.8086 21.2389C57.9588 22.2032 59.4526 22.6578 60.9457 22.4981C62.2318 22.3728 63.6517 21.6961 63.4618 20.1782C63.3009 18.8904 61.7487 18.6702 60.7369 18.4502C58.1468 17.8869 54.4198 17.5853 54.1303 14.2417C53.8177 10.9063 56.3271 9.103 59.3814 8.74041Z" fill="white"/>
<path d="M102.265 3.00854L105.681 3.01146C105.546 10.2587 105.752 17.6888 105.676 24.9522C104.758 25.0528 103.306 24.8844 102.261 24.9891C102.242 24.0518 102.247 23.0991 102.253 22.1606C102.292 15.7808 102.191 9.38692 102.265 3.00854Z" fill="white"/>
<path d="M108.561 9.03255C109.609 8.99063 110.908 9.02158 111.981 9.01212C112.084 12.542 111.937 16.2863 111.998 19.8387C112.009 20.5274 112.036 24.5184 111.955 24.9591C110.936 24.9538 109.556 24.9226 108.562 24.9909C108.54 24.2929 108.525 23.5796 108.536 22.8816C108.614 18.2878 108.416 13.6188 108.561 9.03255Z" fill="white"/>
<path d="M109.793 3.10722C110.861 2.86466 111.925 3.52514 112.18 4.58864C112.436 5.65215 111.787 6.72285 110.725 6.99015C110.027 7.16586 109.289 6.95329 108.792 6.43361C108.295 5.91392 108.116 5.16737 108.323 4.47898C108.53 3.79059 109.092 3.26665 109.793 3.10722Z" fill="white"/>
<path d="M22.0574 3.09783C29.1581 2.54619 35.3741 7.82154 35.9765 14.9108C36.579 22 31.3422 28.2467 24.2501 28.8987C17.0866 29.5572 10.7568 24.2618 10.1482 17.1012C9.53974 9.94068 14.8853 3.65503 22.0574 3.09783ZM23.568 19.2624C25.3509 18.9856 26.58 17.3288 26.3264 15.5443C26.0728 13.7598 24.4304 12.5103 22.6409 12.7404C21.4623 12.8919 20.4564 13.6651 20.0081 14.7645C19.5597 15.8638 19.7382 17.1192 20.4752 18.0504C21.2122 18.9816 22.3938 19.4446 23.568 19.2624Z" fill="white"/>
<path d="M15.2423 0H15.3114C15.6139 0.60109 16.4145 2.12772 16.5721 2.70171C12.8807 4.66372 10.1958 7.52909 8.95095 11.5875C7.77076 15.4034 8.16944 19.5325 10.0581 23.0528C11.5215 25.7768 13.804 27.9733 16.5837 29.3322C16.2938 30.0056 15.541 31.4214 15.3432 32H15.1558C14.3566 31.5735 13.1481 30.942 12.4511 30.4164C7.72684 26.8531 3.30021 21.2026 0 16.3302V15.679C1.28025 13.5965 3.26248 11.0593 4.82414 9.15944C7.54788 5.84587 11.1914 1.67556 15.2423 0Z" fill="white"/>
<path d="M30.884 0H30.9834C31.8227 0.427823 32.7102 0.859027 33.4793 1.42344C37.5636 4.4209 40.777 8.365 43.7982 12.385C44.6648 13.5381 45.5844 14.7664 46.3452 15.9624C46.0237 16.6991 44.6112 18.5135 44.1027 19.1978C40.8634 23.557 36.0025 29.7239 30.967 32H30.8552C30.4317 31.1159 29.9449 30.2314 29.5707 29.3275C32.7177 27.5983 34.7576 25.6216 36.3928 22.4023C40.0264 15.2483 36.7636 6.11281 29.5493 2.67807C29.8875 1.83875 30.4249 0.777916 30.884 0Z" fill="white"/>
<path d="M154 21.1315C153.939 21.2448 153.877 21.3578 153.815 21.4704C151.725 25.2386 147.259 26.3948 143.485 24.3652C137.625 21.2145 138.425 10.6687 145.124 8.96931C146.965 8.50216 149.039 8.6261 150.725 9.58009C152.668 10.6843 153.436 12.3858 154 14.4333V17.6664C150.324 17.7052 146.489 17.6021 142.837 17.6956C143.026 19.1612 143.471 20.6526 144.715 21.549C147.013 23.2053 150.036 22.4729 151.16 19.8699C152.087 20.2207 153.07 20.6127 154 20.9396V21.1315ZM143.002 15.1069L147.496 15.11L150.744 15.1127C150.491 12.4548 149.103 11.3619 146.426 11.5743C144.355 12.1238 143.607 13.0757 143.002 15.1069Z" fill="white"/>
</g>
<defs>
<clipPath id="clip0_2005_10543">
<rect width="154" height="32" fill="white"/>
</clipPath>
</defs>
</svg>
