<svg width="211" height="32" viewBox="0 0 211 32" fill="none" xmlns="http://www.w3.org/2000/svg">
<g clip-path="url(#clip0_2005_10325)">
<path d="M77.9437 6.55381C78.3482 6.51751 78.7725 6.5483 79.1714 6.62258C80.1991 6.81401 80.882 7.54616 81.4439 8.37978C82.2205 9.53194 82.3841 11.2579 82.1225 12.5957C81.6597 14.9608 79.8908 15.0876 78.214 16.2286C76.7822 17.2031 77.8603 18.2223 78.0075 19.497C78.0814 20.1367 77.9205 20.7164 77.8058 21.3378C77.7169 21.8195 77.6037 22.393 77.9083 22.8237C78.0578 23.0351 78.2605 23.1057 78.5097 23.1459C79.2581 23.2666 85.1947 23.2224 85.9663 23.05C86.862 22.8499 87.5481 21.9849 88.4685 22.1436C88.7559 22.1932 89.0327 22.3436 89.1991 22.5879C90.4162 24.3736 86.5657 26.0347 86.3007 27.5394C86.2699 27.7143 86.3225 27.7524 86.4209 27.8897C87.5418 28.2398 91.0849 26.5937 92.1297 25.9529C93.2219 25.2829 94.1884 24.0839 95.515 23.9038C95.8157 23.9962 95.8864 24.0183 96.0911 24.2544C96.3447 25.0783 95.6551 25.8839 95.5191 26.6918C95.4312 27.2137 95.4414 27.7335 95.7655 28.1779C96.0706 28.5964 96.5156 28.8359 97.0206 28.91C99.5356 29.2791 104.483 25.8876 106.126 24.1623C106.592 23.6729 106.569 22.9071 107.081 22.527C107.665 22.4915 108.866 22.8366 109.391 23.1107C111.006 23.9554 109.753 25.6948 110.169 26.9896C110.247 27.2305 110.396 27.4254 110.625 27.5384C112.539 28.4819 118.78 24.0476 120.938 23.3413C121.282 23.2285 121.993 22.9802 122.337 23.161C122.985 23.5012 122.34 25.2053 122.547 25.8421C122.623 26.0786 122.685 26.1253 122.895 26.231C123.79 26.1223 124.827 25.0774 125.575 24.5834C126.46 23.9992 127.541 23.4736 128.632 23.7023C129.007 23.7809 129.506 24.0168 129.713 24.3479C129.989 24.79 129.649 25.5931 129.54 26.0678C129.283 27.1889 130.081 27.3729 130.56 28.1384C130.428 28.3922 130.29 28.6045 130.074 28.795C129.677 29.1451 129.164 29.3457 128.633 29.309C126.184 29.1403 127.755 26.7545 126.895 25.7523C125.566 25.3371 122.255 29.5304 120.274 29.3663C120.051 29.3479 119.825 29.2717 119.681 29.0946C118.91 28.1504 120.099 26.5969 120.196 25.5553C120.054 25.3748 119.89 25.1696 119.637 25.1984C118.896 25.2826 117.981 25.9814 117.325 26.3631C115.281 27.5559 111.871 29.4493 109.406 29.0946C106.909 28.7352 108.929 26.1918 108.079 25.0477C106.915 24.5198 104.937 26.9273 104.085 27.6307C103.39 28.2026 102.644 28.7088 101.855 29.1427C100.418 29.9207 98.8893 30.2807 97.2689 30.3838C95.553 30.4929 93.2828 30.5651 92.7611 28.5553C92.6735 28.218 92.5985 27.719 92.3174 27.4819C91.1034 26.4574 86.6636 30.1164 84.4647 30.3056C83.8855 30.3555 83.0902 30.256 82.634 29.8641C82.4014 29.6645 82.2414 29.387 82.2237 29.0774C82.1764 28.2496 84.3064 26.6708 84.9087 25.9939C85.183 25.6858 85.5977 25.2206 85.5677 24.782C85.562 24.6999 85.5532 24.6747 85.4872 24.6233C85.2613 24.4477 77.797 24.3111 77.0819 24.3774C75.5394 26.8593 69.9801 30.2452 67.0832 30.9671C61.0644 32.4669 61.4493 27.4727 60.2266 26.7641C59.519 26.3541 58.0444 27.8404 57.319 28.0204C57.081 28.0794 56.81 28.0842 56.5953 27.9498C56.186 27.6936 55.9981 27.0933 55.8995 26.6457C55.2583 23.7348 59.3153 20.0231 61.1131 18.0833C61.5737 17.5862 62.1457 17.0673 62.5077 16.4923C62.6468 16.2714 62.7143 16.0806 62.6564 15.8216C62.5018 15.6489 62.305 15.5591 62.1018 15.4558C62.0185 15.325 61.9876 15.2037 61.9872 15.0487C61.9863 14.6831 62.0767 14.1775 62.3449 13.9144C63.0678 13.2053 65.5205 13.4363 66.4749 13.4473C67.8558 11.962 73.5452 8.31322 75.4886 7.37588C76.2952 6.98684 77.0767 6.75108 77.9437 6.55381ZM72.5479 22.7085C73.1647 22.7656 73.821 22.7812 74.4282 22.895C75.1511 21.9224 75.6342 20.8946 75.9062 19.7124C75.5234 18.5331 74.8386 17.9699 73.8834 17.2483C72.7581 17.2482 71.6291 17.2554 70.5072 17.1577C69.3113 17.0534 68.1085 16.8354 66.9068 16.8489C66.0565 17.6817 63.6202 20.2995 63.5992 21.4734C63.5954 21.6917 63.6527 21.7742 63.7581 21.9561C64.2239 22.2038 67.6225 22.081 68.4321 22.1366C69.7296 22.2256 71.3024 22.3397 72.5479 22.7085ZM62.3445 23.8659C61.8988 24.9835 61.7145 26.1195 62.2029 27.2616C62.5476 28.0679 63.223 28.7534 64.0402 29.0783C64.2318 29.1535 64.4264 29.2206 64.6238 29.2793C66.0622 28.9833 67.373 28.5454 68.665 27.8353C70.2838 26.9229 71.9104 25.992 73.0351 24.4632C70.4344 23.821 67.783 23.7278 65.1159 23.7966C64.1929 23.8447 63.2687 23.8678 62.3445 23.8659ZM71.7175 14.383C73.6218 14.6074 76.3783 14.8276 77.9672 13.573C78.6059 13.0687 78.9351 12.3954 79.026 11.5942C79.1143 10.8172 79.0294 9.8618 78.5151 9.23167C78.3381 9.01482 78.11 8.83403 77.8236 8.80744C77.6503 8.79133 77.4749 8.79179 77.3011 8.79464C75.9973 9.27506 74.8997 10.3175 73.7198 11.0455C72.772 11.6302 71.7469 12.1064 70.8261 12.7304C70.4866 12.9604 70.1805 13.216 69.8971 13.5125C69.8654 13.6146 69.8281 13.661 69.8803 13.761C69.9966 13.9835 70.2795 14.1057 70.51 14.1744C70.9048 14.2919 71.3075 14.3535 71.7175 14.383Z" fill="white"/>
<path d="M34.2858 0.0526794C35.0043 0.00910716 35.7515 0.0741788 36.3867 0.443423C37.0121 0.806862 37.4985 1.5929 37.6764 2.28089C37.9985 3.52637 37.4915 4.79883 36.8666 5.86256C36.0576 7.2396 34.923 8.44184 33.7206 9.481C29.2671 13.3295 24.4773 13.9645 18.9975 15.3821C17.5596 17.0163 16.0176 18.6909 14.4122 20.1586C14.1866 21.4847 13.5481 22.3601 13.0869 23.5812C12.8883 24.1071 12.7553 24.7443 12.9945 25.2771C13.2359 25.5516 13.5241 25.6759 13.8704 25.7631C15.1851 26.0936 19.1393 25.6913 20.3243 24.9635C20.8664 24.6305 20.9466 23.5479 21.0773 22.9757C21.8014 22.2065 22.6682 21.6786 23.6038 21.2077C25.0294 20.4906 26.9735 19.6205 28.5774 20.1617C28.8568 20.256 29.0362 20.3794 29.1673 20.6462C29.3223 21.9151 27.7701 22.5183 27.3574 23.5297C27.3864 23.5848 27.4195 23.6365 27.4597 23.6841C27.7639 24.0423 28.4511 24.1179 28.8916 24.1504C30.8419 24.2947 34.7175 23.7221 36.289 22.5705C37.0768 21.9932 37.6622 21.0918 38.4133 20.4414C39.8931 21.0013 41.5819 22.2527 42.5314 23.5151C42.9611 24.0864 43.3003 24.7929 43.1959 25.5257C43.0026 26.8824 41.4874 28.0866 40.4426 28.8662C38.5438 30.2831 35.1271 31.4421 32.7354 31.0846C32.1021 30.9899 31.4786 30.7364 31.0883 30.2063C30.6923 29.6681 30.7288 29.0923 30.8253 28.4728C30.8266 28.4677 30.8278 28.4623 30.8292 28.4571C31.0658 27.5949 31.6309 26.9053 31.902 26.0632L31.7861 25.845C31.5852 25.6807 31.3691 25.6682 31.1194 25.6815C30.4414 25.7177 29.7436 25.951 29.0695 26.0625C27.5797 26.309 25.9224 26.5209 24.4109 26.5576C23.3033 26.5844 22.2378 26.3765 21.1556 26.1662C21.0025 26.2423 20.8477 26.315 20.6915 26.3843C18.8138 27.22 12.7928 28.4293 10.9403 27.7629C9.97085 27.414 9.35857 26.5196 8.38269 26.1438C6.78503 26.6352 6.49032 27.6182 5.25115 28.4764C4.56321 28.9529 2.7326 29.7465 1.90583 30.0866C1.63228 30.1992 1.492 30.1516 1.23612 30.0431C1.01709 29.7253 0.861339 29.3818 0.901882 28.9856C0.976782 28.2537 1.62936 27.5735 2.14407 27.1042C3.82941 25.5669 5.97657 24.5144 7.75228 23.0561C10.6947 20.6395 13.3166 17.8503 16.2571 15.4467C16.304 15.2578 16.3329 15.2213 16.1871 15.0815C15.8874 14.7939 15.412 14.6205 15.0311 14.4702C13.3333 13.8001 12.1126 13.1706 11.2429 11.4818C10.9098 10.835 10.3071 9.47564 10.5475 8.75821C10.6226 8.5344 10.7863 8.37273 10.9978 8.27359C11.245 8.1577 11.5507 8.14649 11.7925 8.28159C12.9394 8.9225 13.3286 10.5426 14.4373 11.3689C15.5211 12.1767 16.9961 12.5316 18.2585 12.9836C19.6047 11.3868 21.2512 9.92532 22.7208 8.43398C26.1893 4.91422 29.2047 1.13766 34.2858 0.0526794ZM24.3127 12.7946C28.5363 12.0859 32.5842 9.20717 35.0519 5.74494C35.5669 5.02228 35.9604 4.16867 35.8061 3.261C35.7467 2.91146 35.5928 2.59452 35.2967 2.3879C34.8907 2.10457 34.3934 2.09665 33.9198 2.12053C30.1996 2.67767 27.2941 6.07976 24.9642 8.76562C24.3314 9.49503 23.621 10.1822 23.048 10.9592C22.7665 11.3409 22.1918 12.1251 22.2677 12.6293C22.2947 12.809 22.3886 12.8445 22.5238 12.9465C23.0903 13.0753 23.7403 12.8677 24.3127 12.7946ZM35.4239 29.4577C35.8635 28.7569 36.221 28.5544 37.0172 28.3722C38.4328 28.0482 40.2074 27.6873 41.046 26.347C41.4209 25.748 41.4223 25.0493 41.2667 24.38C41.1363 23.8194 40.8882 23.3487 40.3855 23.0368C40.026 22.8138 39.6632 22.7866 39.2536 22.8225C38.7922 23.0137 38.3524 23.2128 37.943 23.5023C36.8638 24.2656 33.7847 27.1384 33.3066 28.2706C33.2447 28.4173 33.2373 28.5652 33.2569 28.7215C33.3977 29.0177 33.5657 29.1557 33.874 29.2676C34.3378 29.4359 34.9338 29.4719 35.4239 29.4577Z" fill="white"/>
<path d="M199.233 16.5045C198.751 16.6552 198.28 16.8197 197.774 16.8583C196.031 16.9914 194.152 16.7814 192.402 16.7297C190.494 16.6735 188.424 16.7877 186.539 16.4928C185.507 16.3312 184.59 15.7356 183.538 15.6214C181.744 15.4269 179.925 15.8425 178.121 15.673C176.921 15.5602 175.766 15.0902 174.572 14.9335C173.44 14.7849 172.284 14.7988 171.15 14.6655C169.654 14.4896 168.192 14.0559 166.698 13.8574C164.778 13.6023 162.828 13.5734 160.906 13.3342C159.881 13.2067 155.145 12.2038 154.492 12.4953C154.255 12.6013 154.114 12.734 154.022 12.9795C153.874 13.376 154.31 14.3715 154.431 14.7761C154.664 15.5492 154.886 16.3194 155.045 17.1115C155.284 18.3013 155.361 19.7814 155.87 20.8716C155.923 20.9829 156.004 20.9819 156.116 21.0226C156.97 20.9361 158.017 19.6266 158.716 19.1119C159.085 18.8402 159.646 18.4484 160.128 18.5302C160.319 18.5626 160.481 18.6786 160.592 18.8341C160.942 19.3249 161.08 20.1593 160.98 20.7488C160.727 22.2446 159.021 22.5935 157.923 23.2638C157.108 23.7615 153.95 27.4241 153.479 28.3222C153.108 29.0278 152.909 30.7224 152.299 31.1506C152.157 31.2507 152.057 31.3236 151.88 31.29C151.289 31.1779 150.462 30.5204 150.128 30.0302C149.418 28.988 150.374 28.5747 150.535 27.6829C150.566 27.5144 150.529 27.4952 150.434 27.3544C149.71 27.2205 148.771 27.5695 148.021 27.6117C146.516 27.6965 146.77 26.213 145.951 25.5184C145.615 25.2326 145.199 25.3288 144.81 25.4343C141.767 26.2594 138.438 29.0711 135.228 29.3703C134.392 29.4481 133.645 29.2217 132.999 28.6827C132.783 28.502 131.919 27.6573 131.982 27.3919C132.053 27.1064 132.213 27.096 132.182 26.7465C132.117 26.0135 132.282 25.3733 132.76 24.8046C133.812 23.5526 137.048 22.0278 138.656 21.8926C139.34 21.835 140.221 21.8822 140.769 22.3557C140.87 22.4436 141.065 22.6343 141.07 22.7668C141.105 23.6876 139.034 24.8155 138.413 25.4846C138.169 25.7469 137.858 26.1016 137.871 26.4793C138.561 27.2269 141.987 25.7035 142.78 25.124C144.179 24.1022 145.698 23.2224 146.939 21.9941C147.387 21.6129 149.086 19.6002 149.66 19.5566C152.235 19.3611 151.459 21.2743 150.467 22.4869C149.893 23.189 149.159 24.2508 149.024 24.8529C148.779 25.9464 150.628 26.1926 151.232 25.5113C152.329 24.5495 153.727 23.3492 153.943 21.7947C154.302 19.7874 153.385 17.1024 153.253 15.2269C153.028 12.0085 149.502 12.6346 149.367 10.4334C149.261 8.69139 154.133 10.3126 154.916 10.708C156.007 11.2593 157.949 11.1089 159.163 11.4548C161.22 12.0994 164.906 11.8118 166.844 12.4668C170.077 13.5594 170.467 13.5352 173.871 13.4581C179.098 13.3502 184.318 14.4906 189.495 14.712C195.082 14.951 200.6 15.4578 206.195 15.5181C207.704 15.5344 209.494 15.6023 210.961 15.8787V18.555C210.715 18.8187 210.447 19.0683 210.112 19.2132C208.92 19.728 208.367 18.5431 207.422 18.1825C206.045 17.6581 203.761 17.1026 202.289 17.309C201.931 17.3591 201.576 17.5367 201.248 17.682C200.548 17.4703 199.87 16.8753 199.233 16.5045Z" fill="white"/>
</g>
<defs>
<clipPath id="clip0_2005_10325">
<rect width="211" height="32" fill="white"/>
</clipPath>
</defs>
</svg>
