<svg width="120" height="26" viewBox="0 0 120 26" fill="none" xmlns="http://www.w3.org/2000/svg">
<g clip-path="url(#clip0_2005_10341)">
<path d="M10.4483 0.221107C11.0036 0.199836 11.5025 0.377826 12.0538 0.483414L15.5809 1.1836L19.3941 1.91784C20.2975 2.08375 21.1999 2.23086 22.0962 2.43501C23.6753 2.79469 23.8885 4.31854 24.3246 5.62699L25.5286 9.22513C26.0911 10.9427 26.7537 12.6139 27.246 14.3568C27.622 15.6877 26.9836 16.3748 26.14 17.3029C25.5247 17.9799 24.8946 18.6728 24.2879 19.3588L21.0908 22.9587C20.2522 23.904 19.2546 25.3071 18.035 25.6341C17.321 25.6553 16.3074 25.3691 15.566 25.2253L11.3175 24.4039L7.879 23.7326C4.81357 23.1319 5.01959 23.1669 4.05332 20.2333L3.03394 17.1931L1.76292 13.4198C1.49317 12.6286 1.14993 11.8559 1.0157 11.0335C0.89876 10.3169 1.14373 9.89713 1.59056 9.33788C2.19554 8.58082 2.90151 7.82865 3.55106 7.1001L6.88092 3.37925C7.45916 2.74293 8.01447 2.0877 8.59579 1.45376C9.13499 0.865762 9.60335 0.327917 10.4483 0.221107ZM14.3721 21.9298C14.7779 21.804 15.0598 21.5727 15.4244 21.3608C17.3644 20.2331 19.3193 19.1247 21.2526 17.9861C21.8326 17.6446 22.0566 17.47 22.0641 16.7497C22.0902 14.2323 22.0609 11.7054 22.072 9.1869C22.0743 8.60334 21.9298 8.27257 21.4235 7.97922C19.138 6.65465 16.8632 5.28843 14.5435 4.02542C14.3266 3.90725 14.2024 3.89806 13.9657 3.92238C12.2252 5.03697 10.2731 6.05556 8.47149 7.10306C7.86865 7.45355 7.13296 7.77337 6.59777 8.21573C6.45549 8.33332 6.43432 8.40564 6.39477 8.58315C6.22579 9.34202 6.2337 16.8373 6.40425 17.4586C6.69403 17.795 13.7616 21.91 14.0332 21.9296C14.0634 21.9317 14.093 21.9309 14.1231 21.9309C14.2065 21.9309 14.2885 21.9333 14.3721 21.9298ZM13.1222 22.5312L13.167 22.4653C12.8356 22.1527 6.91495 18.7738 6.39663 18.5622C6.53251 18.9456 8.70339 22.3623 9.0635 22.5527C9.5375 22.8033 12.4519 22.6499 13.1222 22.5312ZM20.2631 6.35775C20.8563 6.719 21.4061 7.0987 22.0475 7.35307C21.4726 6.41948 20.8553 5.47234 20.279 4.54481C19.4432 3.19941 19.3408 3.09625 17.7774 3.19528C16.9693 3.24601 15.8587 3.3483 15.0721 3.34929C16.4836 4.27932 18.7483 5.48526 20.2631 6.35775ZM4.63635 15.8316C4.97725 16.4095 5.08253 16.6338 5.52477 17.1409C5.49767 16.2075 5.53437 9.30594 5.45328 9.20721C5.04897 9.78455 4.79325 10.4363 4.45883 11.0156C2.89021 13.7326 3.14391 13.4448 4.63635 15.8316ZM6.41943 7.32625C6.53355 7.27371 6.91018 7.10853 6.9951 7.05157C7.70439 6.54731 8.95072 5.87944 9.75103 5.42184C10.7824 4.83223 12.1822 3.93401 13.2284 3.43836L12.2153 3.48729C11.6083 3.51819 9.19787 3.58335 8.74597 3.71764C8.51563 3.78379 8.3085 3.9133 8.14814 4.0914C7.92513 4.3396 6.62034 6.88552 6.41943 7.32625ZM22.9101 8.77538C23.0525 11.0583 22.8615 13.5016 22.9377 15.7983C22.949 16.1372 22.9248 16.5564 22.9028 16.8991C23.1297 16.3772 23.3479 15.9401 23.608 15.4338C23.8016 15.126 24.1345 14.349 24.2416 14.1983C25.5582 12.3454 24.8586 11.686 23.7543 10.0479C23.6242 9.855 23.1002 8.88069 22.9101 8.77538ZM21.8653 18.5915C21.3092 18.9418 15.3421 22.3103 15.3006 22.3978L15.3631 22.4643C16.1571 22.4041 16.9517 22.3511 17.7467 22.3054C18.4847 22.2672 19.5079 22.3162 20.1459 21.9419C20.6446 21.1196 21.0449 20.3228 21.4686 19.4626C21.5621 19.2727 21.8718 18.8016 21.9141 18.6501L21.8653 18.5915ZM21.541 21.2333L22.0164 20.6869C22.3568 20.4011 23.1443 19.4757 23.4699 19.0701C24.4454 17.8546 25.9085 16.6439 26.5623 15.2533C26.6556 15.0549 26.0026 12.8888 25.8342 12.7493C25.5163 13.6889 24.9416 14.6765 24.4729 15.5639L22.5051 19.2974C22.2037 19.8683 21.7597 20.6547 21.541 21.2333ZM8.37912 2.93335C9.04117 2.79045 10.3044 2.76797 11.0252 2.73657C12.3739 2.68638 13.7218 2.61649 15.0684 2.52695C15.9113 2.45857 16.7558 2.41166 17.6011 2.38626C16.907 2.21285 15.5505 1.9959 14.8232 1.85504C14.15 1.72468 11.0254 1.02878 10.5102 1.07398C9.48091 1.39959 9.11388 2.09261 8.37912 2.93335ZM19.8237 22.9784C19.0809 23.081 17.9601 23.1004 17.1649 23.1477C15.1075 23.2702 12.8707 23.4448 10.8129 23.4723C11.2913 23.574 11.7237 23.6652 12.2075 23.7349C13.8671 24.1811 15.6812 24.3781 17.3641 24.7729C18.5117 25.0421 19.2054 23.8568 19.8699 23.0869L19.8623 22.995L19.8237 22.9784ZM5.9046 22.4546C6.58614 22.7182 7.46939 22.8269 8.19479 22.9571C7.54809 22.0221 3.65761 15.6144 3.32998 15.4163C3.40763 15.8299 3.66294 16.6743 3.83549 17.0636C4.48735 18.5346 4.94997 21.2871 5.9046 22.4546ZM6.6582 4.83036C5.61359 6.05364 4.42218 7.3412 3.36048 8.54795C1.68439 10.453 1.43546 10.2905 2.38023 12.78L2.47696 12.9936L2.56103 13.0148C3.69707 10.4277 5.46451 7.47432 6.75156 4.89303L6.6582 4.83036ZM20.1795 2.89681L23.3389 7.87374C23.592 8.27281 24.7971 10.2938 25.0545 10.4178C24.4352 8.27868 23.6349 6.1305 22.9068 4.02751C22.5935 3.12267 20.9793 3.02097 20.1795 2.89681Z" fill="white"/>
<path d="M6.6582 4.83032L6.75155 4.89298C5.4645 7.47428 3.69706 10.4277 2.56102 13.0148L2.47695 12.9936L2.38022 12.7799C1.43546 10.2905 1.68439 10.453 3.36047 8.54791C4.42218 7.34116 5.61359 6.05359 6.6582 4.83032Z" fill="white"/>
<path d="M22.9101 8.77539C23.1002 8.8807 23.6242 9.85501 23.7543 10.0479C24.8586 11.6861 25.5582 12.3454 24.2416 14.1983C24.1345 14.349 23.8016 15.126 23.608 15.4338C23.3479 15.9401 23.1297 16.3773 22.9028 16.8991C22.9248 16.5564 22.949 16.1372 22.9377 15.7983C22.8615 13.5016 23.0526 11.0583 22.9101 8.77539Z" fill="white"/>
<path d="M85.8691 2.31708C86.4443 2.32551 88.3836 2.18578 88.7239 2.48807C88.9228 3.08434 88.8344 8.23058 88.8321 9.20984C89.8802 8.20137 90.8185 7.62072 92.2878 7.57731C95.2979 7.4883 97.6955 9.26016 98.4819 12.148C99.3166 15.2131 99.0397 19.0287 96.7957 21.3878C96.7561 21.4443 96.7352 21.4612 96.6869 21.5074C95.5026 22.6368 93.9693 23.0693 92.3558 23.0088C90.765 22.9491 89.9151 22.5161 88.8385 21.3629C88.846 21.8126 88.9304 22.341 88.6582 22.674C88.3214 22.9082 85.6358 22.9018 85.3037 22.6262C85.128 22.0497 85.2333 17.2073 85.2333 16.3499L85.2356 7.92169C85.2351 7.25725 85.1664 2.84946 85.3229 2.44838C85.4619 2.31526 85.669 2.33031 85.8691 2.31708ZM92.3587 20.0186C94.9215 19.8142 95.3717 16.6161 95.2147 14.5885C95.0565 12.548 94.0706 10.4132 91.6747 10.5773C89.1566 10.9515 88.892 13.5034 88.8868 15.5658C88.8821 17.6656 89.6406 20.3759 92.3104 20.03C92.3267 20.0262 92.3424 20.0223 92.3587 20.0186Z" fill="white"/>
<path d="M76.6655 7.61264C76.7806 7.59728 76.8958 7.58756 77.0116 7.58343C80.2369 7.46451 83.8909 8.93232 83.9025 12.6785C83.913 15.842 83.8874 19.0059 83.9066 22.1698C83.9107 22.8374 83.6053 22.7783 83.0399 22.8237C82.4431 22.8598 81.7696 22.7826 81.1821 22.8167C80.0746 22.8808 80.277 22.1921 80.2951 21.3261C79.0456 22.8267 77.047 23.1278 75.2043 22.9917C73.35 22.8548 71.7702 22.183 70.9494 20.4212C70.3596 18.748 70.4992 16.8021 71.7917 15.4856C73.9043 13.3339 77.5281 13.813 80.3102 13.7711C80.3084 13.2012 80.3404 12.3446 80.1043 11.8313C79.4249 10.3554 77.1686 10.3483 75.8668 10.8955C75.1473 11.1981 74.9466 11.7196 74.6878 12.3833C74.1695 12.3579 71.53 12.096 71.1926 11.8558C71.1571 11.7952 71.1146 11.6997 71.1199 11.6298C71.3182 9.07579 74.5197 7.72144 76.6655 7.61264ZM74.732 19.7389C76.1932 20.8092 78.6257 20.3613 79.771 19.003C80.1648 18.5356 80.3398 16.7596 80.1572 16.2019L80.1118 16.1765C78.4518 16.1719 75.9366 15.8656 74.6238 17.0352C73.998 17.5931 73.8903 18.9224 74.5185 19.5421C74.5878 19.6098 74.6593 19.6755 74.732 19.7389Z" fill="white"/>
<path d="M111.599 7.55738C113.195 7.5028 115.165 7.9465 116.411 9.03211C118.094 10.4985 118.434 12.4867 118.668 14.6033C118.72 15.0723 118.807 16.0632 118.501 16.4246C118.174 16.6339 115.67 16.5545 115.146 16.5541C112.967 16.5393 110.788 16.5449 108.61 16.5708C108.78 17.9411 109.13 19.2 110.582 19.751C111.897 20.2503 113.686 20.2069 114.84 19.3298C115.125 19.1128 115.652 18.4411 115.913 18.3271C116.37 18.3034 116.528 18.6419 116.932 18.9262C117.607 19.4337 118.704 19.866 117.919 20.7576C115.451 23.5602 110.036 23.8379 107.284 21.348C105.787 19.9927 105.115 17.7397 105.063 15.7743C104.715 11.2928 106.779 7.80384 111.599 7.55738ZM108.651 13.9886L112.545 13.9873L115.073 13.9854C114.885 11.5788 113.714 10.3885 111.238 10.5788C109.353 10.9981 108.78 12.1842 108.651 13.9886Z" fill="white"/>
<path d="M47.5041 7.60944C48.8927 7.44845 50.894 7.77514 52.1137 8.52214C53.5741 9.41651 54.3947 10.7767 54.8115 12.4127C55.009 13.1878 55.3663 15.8028 54.95 16.4783C54.6624 16.6911 46.2871 16.5634 45.1057 16.5921C45.1257 16.7681 45.1476 16.944 45.1713 17.1196C45.5886 20.166 48.6311 20.6905 51.0606 19.5509C51.5727 19.3106 51.993 18.4009 52.5287 18.3249C52.7552 18.3926 52.9346 18.5763 53.1123 18.7343C53.7858 19.2713 55.2413 19.8965 54.406 20.7614C52.9223 22.2978 51.3954 22.8735 49.3373 23.0355C44.6942 23.401 41.6499 20.5355 41.5537 15.9144C41.3919 13.6809 41.6532 11.3801 43.2166 9.65762C44.2624 8.50538 45.9535 7.71306 47.5041 7.60944ZM48.5768 14.0086C49.5443 14.0054 50.5486 14.0162 51.5129 13.9962C51.3513 11.9629 50.3645 10.3829 48.0967 10.576C46.068 10.7333 45.193 12.0671 45.1392 14.0015L48.5768 14.0086Z" fill="white"/>
<path d="M63.1912 7.60892C64.1317 7.52432 65.0798 7.6287 65.9791 7.91577C67.1657 8.28406 68.1545 9.11455 68.7216 10.2201C69.0672 10.8875 69.2364 11.637 69.3126 12.3805C69.397 13.2022 69.4034 22.1538 69.2777 22.5276C69.2626 22.5729 69.2178 22.6874 69.1742 22.7086C68.8397 22.8724 66.3804 22.8936 66.039 22.7671C65.8779 22.7074 65.8092 22.6074 65.7709 22.4424C65.6446 21.899 65.747 21.149 65.7482 20.5825L65.7546 15.8014C65.7557 13.9502 66.121 11.534 63.9526 10.7489C63.1854 10.4712 62.3385 10.5124 61.6015 10.8636C59.5253 11.5777 60.066 14.4463 59.9941 16.1407C59.9878 16.2909 59.9945 16.4532 59.9946 16.6047L59.9956 21.0284C59.9968 21.4396 60.0758 22.3855 59.9023 22.698C59.4891 22.8866 57.0824 22.8457 56.6018 22.7551C56.4279 22.6352 56.3998 22.1719 56.4012 21.9717C56.431 17.5866 56.4019 13.2008 56.4154 8.81596C56.4161 8.59271 56.4481 8.17613 56.54 7.98169C56.944 7.7752 58.639 7.90949 59.1705 7.85834C59.4086 7.83542 59.7313 7.86957 59.9167 8.05744C60.0702 8.3405 60.0021 8.91952 59.9907 9.26628C60.8831 8.32368 61.876 7.74018 63.1912 7.60892Z" fill="white"/>
<path d="M34.4855 3.91942C35.3871 3.92413 36.333 3.85792 37.222 3.94787C37.9182 4.01832 37.7102 5.33597 37.701 5.85373C37.6913 6.51875 37.6931 7.18388 37.7063 7.84884C38.4979 7.93006 40.7049 7.74795 41.2305 7.98918C41.4809 8.29248 41.439 10.1364 41.2116 10.4951C40.8183 10.7449 38.4204 10.6071 37.6958 10.6763C37.8106 13.1671 37.5652 15.7753 37.7462 18.2825C37.9098 20.549 40.3039 19.5047 40.9356 19.9885C41.1465 20.3517 41.0798 21.3366 41.0764 21.8C41.0838 22.0923 41.1263 22.5096 40.9463 22.7371C40.7096 22.8644 40.4132 22.8739 40.1403 22.8727C38.5777 22.8725 36.3861 22.9302 35.1688 21.771C34.0231 20.6799 34.2811 18.0876 34.2821 16.6245C34.2934 14.6271 34.2912 12.6298 34.2754 10.6325C33.8572 10.6388 32.3988 10.721 32.1543 10.4949C31.9941 10.0509 31.9869 8.40663 32.1689 7.97067C32.4466 7.79316 33.9016 7.87299 34.2928 7.87531C34.2852 7.16625 34.1347 4.33216 34.4855 3.91942Z" fill="white"/>
<path d="M100.34 2.35905C101.14 2.32302 102.873 2.3199 103.649 2.374C103.779 3.03154 103.738 4.3479 103.739 5.06494L103.74 9.47803L103.739 17.8545C103.738 19.307 103.746 20.7708 103.728 22.2237C103.725 22.4534 103.694 22.5963 103.584 22.7974C103.517 22.8082 103.45 22.8163 103.382 22.8219C102.929 22.8547 100.544 22.9019 100.295 22.6886C100.112 21.8674 100.171 20.4347 100.171 19.5532L100.172 14.653L100.172 7.19247C100.172 6.08085 100.053 3.24949 100.34 2.35905Z" fill="white"/>
<path d="M118.51 6.8952C119.019 6.91149 119.527 7.15202 119.695 7.66291C119.781 7.91909 119.759 8.19917 119.635 8.43917C119.433 8.82213 119.184 8.90655 118.797 9.02349C117.26 8.96194 116.975 7.38056 118.51 6.8952ZM118.83 8.8276C119.139 8.76179 119.388 8.53343 119.48 8.23123C119.571 7.92904 119.492 7.60083 119.272 7.37433C119.052 7.14777 118.726 7.05875 118.421 7.14184C117.969 7.26541 117.696 7.72709 117.807 8.18346C117.918 8.6399 118.371 8.92534 118.83 8.8276Z" fill="white"/>
<path d="M118.229 7.34937C118.467 7.35949 118.843 7.35844 119.022 7.50809C119.036 7.57296 118.993 8.51533 118.983 8.53878L118.854 8.53476C118.841 8.51166 118.829 8.48868 118.815 8.46587C118.732 8.32374 118.679 8.18224 118.546 8.14803C118.5 8.28551 118.445 8.50939 118.342 8.59731L118.29 8.55274C118.174 8.30087 118.221 7.65796 118.229 7.34937Z" fill="white"/>
</g>
<defs>
<clipPath id="clip0_2005_10341">
<rect width="120" height="26" fill="white"/>
</clipPath>
</defs>
</svg>
