<svg width="75" height="30" viewBox="0 0 75 30" fill="none" xmlns="http://www.w3.org/2000/svg">
<g clip-path="url(#clip0_2005_4652)">
<path d="M19.3982 4.62743L19.435 4.62329C19.5493 4.74685 19.5053 5.40181 19.5034 5.61301L19.0432 5.68199C19.0373 6.10155 19.025 6.52101 19.0063 6.94024C19.8902 7.16989 20.7488 7.48765 21.5692 7.8887C21.5676 7.67726 21.5352 6.99797 21.6365 6.85019C21.9187 6.76027 22.5088 6.8013 22.8182 6.79159C23.6343 6.76596 24.6501 6.84416 25.4533 6.75822C25.4909 7.60244 25.4646 8.61038 25.464 9.46774L25.4654 14.2839L25.4688 17.2254C25.469 17.6211 25.491 18.4454 25.4395 18.8061C25.6478 18.7952 26.2749 18.7541 26.3244 18.8585C26.4227 19.0655 26.3587 20.4449 26.3644 20.6879C26.3801 21.3538 26.3838 21.8087 26.3722 22.4538C26.3715 22.4897 26.3624 22.6001 26.3162 22.615C25.6924 22.7116 22.664 22.72 22.2251 22.6298C22.0124 22.2995 21.7823 21.8595 21.5882 21.5084C21.0882 21.965 19.5701 22.4107 18.8929 22.5493C18.0128 22.7034 17.113 22.7087 16.2312 22.565C14.1082 22.2339 12.2003 21.0036 10.9937 19.2835C7.85161 14.8044 10.1083 8.45206 15.4395 7.08167C15.597 7.04117 15.8628 7.02523 15.9764 6.94312C16.0643 6.73704 16.0476 5.83128 15.8717 5.65648C15.7932 5.63488 15.751 5.63275 15.6999 5.57076C15.6607 5.29362 15.6169 5.00471 15.6952 4.73151C15.8613 4.58332 18.9036 4.65453 19.3982 4.62743ZM17.0209 10.6895C15.8491 10.9583 14.8018 11.4021 14.1483 12.4658C13.9114 12.8515 13.2752 14.0507 13.6019 14.4414C13.7488 14.4977 13.7999 14.4892 13.8829 14.6036C13.8941 15.0497 13.5327 14.8402 13.5196 15.1925C13.4922 15.9258 13.9182 16.6938 14.3436 17.2645C14.7646 17.8887 16.4237 18.9484 17.1705 18.7373C17.3864 18.5475 17.1802 18.3111 17.5852 18.3189C17.8147 18.4434 17.6519 18.6001 17.8316 18.7599C17.9383 18.775 17.9542 18.7728 18.0589 18.7561C19.8461 18.4444 21.3748 16.9995 21.5353 15.1394C21.5531 14.9339 21.2576 14.9679 21.1406 14.8235C21.1291 14.5157 21.3214 14.4787 21.5749 14.3976C21.2254 12.2768 19.9572 10.964 17.8042 10.6574C17.7986 10.8004 17.8107 10.9821 17.7295 11.0924C17.2668 11.3566 17.3345 10.8126 17.1861 10.6863L17.0209 10.6895Z" fill="white"/>
<path d="M19.1854 12.7971C19.3259 12.8331 19.4904 12.9251 19.6228 12.992C19.2138 13.3249 18.6529 14.0003 18.3019 14.4114C18.0365 14.7222 18.3187 15.6702 17.288 15.4375C17.1613 15.3934 17.0721 15.3514 16.9784 15.2497C16.6862 14.9327 16.7067 14.4475 17.0358 14.1636C17.2707 13.9608 17.4933 13.9823 17.7851 14.0061C18.205 13.5517 18.6747 13.1462 19.1854 12.7971Z" fill="white"/>
<path d="M68.2571 10.4817C67.8513 10.5249 67.3904 10.4915 66.9781 10.5184C66.7503 10.5333 66.551 10.5174 66.4037 10.3313C66.3665 9.94751 66.3422 7.9697 66.4869 7.68971C66.745 7.52637 73.3017 7.63926 74.3135 7.60005C74.3177 8.07383 74.3818 10.1577 74.2539 10.452C74.0185 10.5763 72.7911 10.5052 72.4312 10.5089C72.0254 11.4239 71.7388 12.4517 71.2768 13.3634C71.0904 13.7307 70.9655 14.2594 70.7916 14.6515C70.4461 15.4301 70.0976 16.1995 69.8455 17.0151C69.371 18.1023 68.8604 19.2257 68.4382 20.3594C67.0062 24.2032 64.7758 29.2235 59.8937 29.0402C59.4764 29.0245 57.9028 28.9093 57.6633 28.6539C57.5619 28.3172 57.7745 25.9102 57.8748 25.3946C57.8823 25.3289 58.03 25.249 58.0877 25.2609C60.3344 25.7242 62.4934 24.8831 63.4554 22.646C63.2512 22.0948 62.9676 21.5581 62.7782 21.0344C62.5075 20.286 62.1954 19.5973 61.8978 18.8693L60.8879 16.3887C60.1203 14.4504 59.2122 12.4365 58.5334 10.4866C57.9632 10.5214 57.1929 10.5047 56.6052 10.5131C56.5715 10.1541 56.5339 7.82174 56.6694 7.60434C58.4681 7.67502 60.3781 7.58665 62.1829 7.62021C62.7102 7.63004 63.9964 7.57811 64.4603 7.64872C64.6581 7.83643 64.5792 9.1704 64.6027 9.49014C64.6202 9.73448 64.6316 10.2254 64.4843 10.4287C64.2534 10.6034 63.0549 10.5066 62.689 10.5062C62.8146 10.9619 63.0667 11.3811 63.244 11.8252L64.5902 15.1749C64.8943 15.9132 65.223 16.5804 65.4474 17.3517L67.4435 12.47C67.7199 11.7911 68.0047 11.1774 68.2571 10.4817Z" fill="white"/>
<path d="M33.3833 6.78604C35.1921 6.73886 36.8295 6.85384 38.5861 7.26486C38.8138 7.31812 40.1293 7.4979 40.1578 7.73401C40.2158 8.21572 40.299 10.0727 40.146 10.4259C39.9243 10.5808 37.749 10.4918 37.3287 10.4796C37.3101 10.3911 37.2706 10.1802 37.1954 10.1272C36.6639 9.75278 35.251 9.77764 34.6248 9.76174C33.8621 9.77233 33.2728 9.77434 32.693 10.2991C32.2109 10.7354 32.0866 11.7842 32.7054 12.114C34.7018 13.1781 37.2406 12.9243 39.0086 14.5443C39.9178 15.3774 40.2121 16.5399 40.2257 17.7472C40.1555 21.2681 38.0785 22.6746 34.7621 22.6791C32.8495 22.6992 30.1252 22.1831 28.2973 21.6793C28.2683 20.915 28.2388 19.5376 28.3253 18.8027C28.8587 18.8003 30.6406 18.7587 31.0929 18.831C31.2598 18.9517 31.2207 19.2966 31.4739 19.3519C32.5306 19.5412 33.788 19.6013 34.8667 19.5234C36.0811 19.4357 36.9901 18.6021 36.5259 17.3498C35.5041 16.4706 33.5642 16.4143 32.2912 16.0141C31.4178 15.7693 30.428 15.3095 29.7168 14.7438C29.3548 14.4047 28.7207 13.6717 28.5904 13.1974C27.4613 9.08617 29.4185 7.03619 33.3833 6.78604Z" fill="white"/>
<path d="M6.73501 0.635508C7.49189 0.600802 8.25033 0.622571 9.00403 0.700643C9.41442 0.744475 9.84975 0.834307 10.2566 0.846674C10.1297 1.90022 9.95389 2.9473 9.72952 3.98447C9.02123 3.95874 6.93177 3.61175 6.76249 4.55106C6.59059 5.50483 6.77046 6.63413 6.65555 7.60977C7.05182 7.61308 9.23166 7.58874 9.47338 7.63737C9.68013 7.82269 9.67869 10.2174 9.55921 10.4535C9.33603 10.554 7.06674 10.5189 6.66849 10.4914C6.69989 11.1114 6.68273 11.8331 6.68269 12.4596L6.68273 15.853L6.68535 18.2021C6.68668 18.6639 6.70619 19.2769 6.65995 19.7263C7.31434 19.7087 7.98937 19.8043 8.62098 19.6681C8.64167 20.6677 8.64436 21.6676 8.62899 22.6673C8.31316 22.682 7.94697 22.6744 7.62731 22.6756L0.870641 22.6804C0.844753 22.178 0.765735 20.2057 0.929667 19.8C1.08224 19.6791 2.49634 19.7282 2.80905 19.7205C2.76289 18.6702 2.79191 17.4282 2.79186 16.3676L2.79521 10.4962C2.34264 10.5361 1.37089 10.5085 0.874327 10.5176C0.838333 10.072 0.759634 8.32501 0.940688 7.97419C1.13406 7.80416 2.50737 7.66979 2.81903 7.64971C2.8103 7.52896 2.80354 7.40806 2.79876 7.28708C2.75549 6.17494 2.73911 3.6275 3.06709 2.63535C3.19207 2.25989 3.39631 1.91571 3.66608 1.62615C4.42297 0.81259 5.67897 0.673073 6.73501 0.635508Z" fill="white"/>
<path d="M45.8356 0.598521L45.9222 0.595215L45.9697 0.653346C46.0494 1.00271 46.0034 7.13577 45.9374 7.60499C46.4917 7.61611 47.0459 7.61972 47.6002 7.61581C47.9092 7.61406 48.618 7.58806 48.8762 7.64454C49.0732 7.80796 49.0163 8.41858 48.9942 8.67704C48.9631 9.04586 49.096 10.1742 48.9438 10.4369C48.6981 10.5467 46.3546 10.5245 45.9495 10.4884C46.0065 11.1799 45.9856 12.0556 45.986 12.7573L45.9829 16.2781C45.9814 16.774 45.945 17.9738 46.0422 18.4188C46.2365 19.3088 48.5504 18.7016 48.8743 18.8851C49.0641 19.1527 49.4601 21.8672 49.4236 22.2507C49.274 22.3355 48.9434 22.3894 48.7611 22.4272C46.9138 22.6738 44.1064 23.1184 42.8042 21.2916C42.0867 20.2846 42.0453 18.6049 42.0389 17.4058L42.0336 15.0327L42.0431 8.5424L42.0434 3.40373C42.0434 2.76054 42.0066 1.25829 42.1023 0.682708C42.3973 0.566791 45.2237 0.642782 45.8356 0.598521Z" fill="white"/>
<path d="M50.9479 0.611755C51.3909 0.627277 54.4926 0.577178 54.6672 0.674123C54.7807 1.31463 54.7238 2.57481 54.723 3.27619L54.7211 7.93316V15.9389L54.7222 18.4076C54.7238 18.839 54.75 19.2863 54.7268 19.7136C55.0958 19.7325 56.3357 19.6741 56.5711 19.788C56.6823 20.0427 56.6538 22.2277 56.6322 22.6428C56.3983 22.7022 55.0434 22.679 54.6828 22.6783L50.8784 22.6797C50.8211 22.1991 50.8537 20.8161 50.8545 20.2666L50.8598 15.4678L50.8583 6.14974C50.8579 4.46984 50.8503 2.78663 50.8666 1.107C50.8681 0.927006 50.8636 0.7719 50.9479 0.611755Z" fill="white"/>
<path d="M72.7414 19.7503C73.539 19.6948 74.2323 20.292 74.2957 21.0888C74.3587 21.8855 73.7683 22.5846 72.9722 22.6557C72.1647 22.7277 71.4537 22.1273 71.3899 21.3194C71.3257 20.5115 71.9328 19.8065 72.7414 19.7503ZM71.7251 20.7576C71.5638 21.1692 71.6393 21.636 71.9218 21.9759C72.2046 22.3158 72.6495 22.4751 73.0839 22.3917C73.2729 22.3554 73.451 22.2746 73.6024 22.156C74.039 21.8145 74.189 21.2205 73.9661 20.7128C73.7437 20.2051 73.2053 19.9129 72.6583 20.0028C72.2357 20.0722 71.8812 20.3591 71.7251 20.7576Z" fill="white"/>
<path d="M72.315 20.6254C72.5983 20.7155 72.5709 20.986 72.7771 21.0514C72.8636 21.0189 72.9703 21.0076 73.0625 20.9937C73.1495 20.8729 73.0307 20.91 73.0276 20.6761C73.1282 20.5897 73.1309 20.6179 73.2964 20.6099C73.5075 21.0033 73.4209 21.0829 73.236 21.4751C73.2968 21.5987 73.3871 21.7415 73.3674 21.8723L73.3177 21.9231C73.0838 21.8829 72.8818 21.5925 72.7399 21.415C72.7152 21.5601 72.6977 21.7606 72.615 21.8744C72.5041 21.9244 72.5527 21.9179 72.4316 21.8977C72.2118 21.7037 72.3173 20.9342 72.315 20.6254Z" fill="white"/>
<path d="M72.3151 20.6254C72.4544 20.4363 73.1051 20.5349 73.2964 20.6099C73.1309 20.6179 73.1282 20.5896 73.0276 20.6761C73.0307 20.91 73.1495 20.8729 73.0626 20.9936C72.9703 21.0075 72.8636 21.0189 72.7771 21.0514C72.5709 20.986 72.5983 20.7154 72.3151 20.6254Z" fill="white"/>
</g>
<defs>
<clipPath id="clip0_2005_4652">
<rect width="75" height="30" fill="white"/>
</clipPath>
</defs>
</svg>
