<svg width="113" height="36" viewBox="0 0 113 36" fill="none" xmlns="http://www.w3.org/2000/svg">
<path d="M45.8144 22.8207L53.0763 22.8202C56.4681 22.8204 61.2491 22.2232 61.2463 27.1996C61.2458 28.3189 60.9431 29.4592 60.1055 30.2359C58.7084 31.653 56.4516 31.5881 54.5874 31.5861L51.9643 31.5807C51.9158 31.5802 51.8674 31.5788 51.819 31.5766C51.8224 32.7269 51.8887 34.8982 51.813 36H45.6365C44.9597 35.202 44.2699 34.4151 43.5674 33.6396C42.9215 32.924 42.4143 32.4152 41.8449 31.6205C41.4703 31.9179 40.7941 32.7104 40.4279 33.11C39.5581 34.0592 38.6212 35.0274 37.7844 36H25.2356C25.0828 32.3139 25.2943 28.5117 25.2102 24.8131C25.1956 24.1735 25.1944 23.456 25.2322 22.8181L33.5577 22.823C34.9553 22.8225 36.5252 22.7823 37.8995 22.8319C38.9171 23.7332 39.6205 24.6845 40.5563 25.6653C41.0187 26.1498 41.3087 26.6573 41.8907 27.0667C42.5234 26.2675 43.173 25.6224 43.8546 24.8847C44.4782 24.2097 45.1297 23.4392 45.8144 22.8207ZM51.8169 28.8501C52.9876 28.8265 54.1663 28.8549 55.3383 28.85C56.1709 28.8465 56.6076 28.8303 57.3316 28.3889C57.728 27.93 57.8631 27.5425 57.8024 26.9415C57.6447 25.3809 56.0617 25.5178 54.9283 25.5167C53.8732 25.5157 52.8297 25.561 51.8181 25.5235C51.8225 26.6084 51.8419 27.7702 51.8169 28.8501ZM28.4051 27.9132C30.6756 27.9162 33.137 27.962 35.398 27.8976C35.375 28.7971 35.4286 29.8099 35.3891 30.6669C34.7739 30.7399 32.8926 30.7183 32.1991 30.7022C31.0432 30.6755 29.5131 30.7518 28.3953 30.6923C28.4099 31.5439 28.4153 32.3957 28.4116 33.2474C28.8672 33.1787 29.5674 33.2032 30.0437 33.2034L32.7104 33.208C33.4855 33.2069 35.4334 33.1607 36.1122 33.2502C37.2867 31.951 38.5181 30.7046 39.678 29.3992C39.0542 28.4542 38.1887 27.7194 37.4722 26.8517C37.115 26.4192 36.6048 25.9713 36.3025 25.525C33.7731 25.5306 30.9085 25.599 28.4043 25.5242C28.4063 26.258 28.4344 27.1955 28.4051 27.9132ZM48.5506 24.3556C47.5189 25.602 46.1397 26.7965 45.1048 28.0597C44.7172 28.5328 44.2295 28.9277 43.82 29.4416C44.6945 30.3284 45.5717 31.3291 46.409 32.26C47.0208 32.9682 47.9788 34.0865 48.6436 34.7076C48.4569 33.4628 48.7249 24.5576 48.5506 24.3556Z" fill="white"/>
<path d="M77.8273 0H77.9828C78.0969 0.619939 78.0015 2.19573 78.0561 2.94624C76.6953 2.94129 73.5916 2.67549 72.6703 3.62032C71.4688 4.85229 71.3734 8.43541 72.5457 9.76328C73.3457 10.6312 75.0616 10.4655 76.1881 10.4828C76.3744 9.81736 80.4122 0.277197 80.6498 0H85.1761C85.8813 0.964998 86.0996 2.03553 86.5903 3.0906C87.4235 4.88167 88.1187 6.67058 88.9359 8.46877C89.5126 9.73764 89.9322 11.0511 90.6055 12.3159L90.6788 11.9442C90.5867 11.5612 90.6253 8.30481 90.6259 7.75996L90.6281 3.01306C90.6286 2.44911 90.5674 0.349848 90.7367 0H90.8155C91.2335 0.126995 94.7209 0.0517893 95.4074 0.0487605C95.7553 0.498902 96.111 1.18011 96.4241 1.68558C97.5291 3.47027 98.591 5.30072 99.6894 7.08968C99.921 7.46639 100.539 8.56072 100.79 8.83869L100.859 8.82799C100.947 8.61955 100.914 8.54694 100.94 8.3665C101.112 7.16141 100.702 0.685681 101.036 0H104.13C104.282 0.350207 104.207 11.6247 104.209 13.2516C103.319 13.2896 100.543 13.3182 99.7357 13.222C99.2836 12.6512 98.9516 11.9925 98.5811 11.3656L97.0284 8.7851C96.0828 7.20303 94.6107 4.96999 93.8101 3.37935C93.761 4.45506 93.7952 5.78547 93.7952 6.87418V13.249C93.1517 13.2989 92.1554 13.2717 91.4794 13.2746C90.1169 13.2871 88.7545 13.2862 87.392 13.272C86.9068 12.3303 86.4867 11.3566 86.1332 10.3578C84.757 10.431 83.292 10.3342 81.9064 10.3717C81.1686 10.3917 80.3482 10.3837 79.6127 10.3561C79.391 11.0542 78.7145 12.5122 78.4002 13.2618C77.8637 13.3056 76.9991 13.2749 76.4351 13.2816C74.6095 13.3032 72.3521 13.3365 70.746 12.3333C69.6267 11.634 68.9022 10.2376 68.6596 8.96703C68.267 6.91365 68.3304 4.13752 69.5263 2.34714C71.0139 0.119858 73.4946 0.0397437 75.892 0.0691762C76.3441 0.0747317 77.4248 0.0870461 77.8075 0.00442468L77.8273 0ZM80.7105 7.60212L82.8719 7.59683C83.5798 7.59578 84.3286 7.60587 85.0332 7.59275C84.4973 6.39284 84.0501 5.06186 83.4784 3.85754C83.3477 3.5825 83.0411 2.70276 82.884 2.51417C82.1336 4.00147 81.5916 5.57785 80.9536 7.1135C80.883 7.28231 80.8097 7.44787 80.7105 7.60212Z" fill="white"/>
<path d="M90.6788 11.9442C90.7163 12.1776 90.8646 12.8988 90.7819 13.0464L90.8326 13.0469L90.8122 13.1192L90.7643 13.0092L90.8238 12.988L90.7433 12.9455L90.6055 12.3158L90.6788 11.9442Z" fill="white"/>
<path d="M5.95447 0H5.99008C6.45991 0.128701 9.78675 0.0564737 10.4474 0.0402439C10.8908 0.758249 11.1396 1.65509 11.4909 2.42829C12.7959 5.3006 13.9561 8.2478 15.2605 11.1215C15.4444 11.5266 15.593 12.0215 15.8283 12.3854C15.738 9.85634 15.8245 7.26219 15.7944 4.72709C15.787 4.10288 15.7292 0.296829 15.9081 0H15.9885C16.4131 0.131597 20.1957 0.0509791 20.9206 0.0524447C21.4691 0.839544 21.923 2.11547 22.347 3.01579L24.0971 6.8271C24.4724 7.6363 24.7825 8.15811 25.1135 9.02602C25.4402 8.09228 25.8191 7.33397 26.2069 6.43501L27.8018 2.67066C27.9863 2.23809 28.7464 0.231925 28.9474 0H34.0819C34.3001 0.406382 34.2054 6.47498 34.1959 7.49175C34.1809 9.11417 34.3014 11.6427 34.1909 13.2478C33.2544 13.3186 31.9132 13.2809 30.9456 13.2801C30.916 12.8261 30.904 12.2887 30.9109 11.8335C30.9543 8.95838 30.844 6.04872 30.9137 3.17825C30.1595 4.32028 29.7339 5.84242 29.1065 7.07954C28.439 8.39566 27.9658 9.83941 27.3053 11.1636C26.9628 11.8502 26.7082 12.5913 26.3381 13.2662C25.6489 13.3088 24.282 13.2898 23.5835 13.2579C23.3203 12.7587 23.067 12.1633 22.8313 11.6406C21.5549 8.80958 20.3452 5.95715 19.0287 3.14433C18.9983 3.59706 19.0061 4.14249 19.014 4.5993C19.0635 7.47146 18.9588 10.3742 19.0039 13.2426C18.3451 13.3072 17.3298 13.2766 16.6481 13.2766L12.5719 13.2691C12.2295 12.4303 11.6247 11.1313 11.3462 10.3551C9.5066 10.4005 7.65331 10.3549 5.81243 10.3707C5.48036 10.3736 5.16901 10.3706 4.83816 10.3357C4.3687 11.4315 4.11448 12.1565 3.55701 13.2612C2.66213 13.3111 1.04921 13.2859 0.147888 13.2515C0.388443 12.5966 0.749363 11.8693 1.03211 11.2179L2.63111 7.49478L4.35233 3.46148C4.58175 2.91202 5.57953 0.294133 5.95447 0ZM5.97591 7.59115L8.0363 7.59341L10.1926 7.58117C9.85226 6.79849 8.40666 2.86597 8.05808 2.51184C7.71347 3.19333 7.51453 3.91321 7.19622 4.58583C6.7286 5.57405 6.39788 6.59478 5.97591 7.59115Z" fill="white"/>
<path d="M49.2643 0H49.3472C49.7523 0.161198 56.88 -0.0122907 57.943 0.116287C59.1384 0.260895 60.0245 0.252685 61.1311 1.39156C61.7723 2.05122 61.8964 3.13127 61.8479 3.99134C61.795 4.92851 61.3627 5.94011 60.6183 6.52796C60.3211 6.76238 60.0366 6.95274 59.7372 7.21323C61.2182 7.87987 61.6869 8.5879 61.7387 10.2329C61.7707 11.2363 61.7453 12.2534 61.7404 13.2567C60.9839 13.3287 59.3259 13.2803 58.5082 13.2731C58.4895 12.8589 58.4922 12.2185 58.495 11.8072C58.5088 9.70219 58.5341 8.47819 55.995 8.47896C54.8797 8.4793 53.5027 8.51563 52.3779 8.47797C52.4019 10.0475 52.3883 11.6733 52.3856 13.2463C51.7136 13.3263 49.9534 13.2817 49.2011 13.2815C49.1194 12.1194 49.0788 0.449588 49.2643 0ZM52.3693 5.73889C53.5644 5.7476 56.5343 5.82715 57.519 5.67063L58.0109 5.23347C58.3125 4.84308 58.4321 4.4368 58.3489 3.94841C58.1311 2.67282 56.4499 2.88071 55.5308 2.86378C54.4596 2.84404 53.4196 2.90561 52.3778 2.86459C52.3815 3.79683 52.4029 4.81474 52.3693 5.73889Z" fill="white"/>
<path d="M62.7124 22.8146L68.4142 22.8228C69.7965 22.8225 71.2863 22.731 72.6229 23.0101C74.3796 23.377 75.4393 24.5528 75.3836 26.3578C75.3312 28.0604 74.6834 28.9981 73.2658 29.8714C74.9949 30.6635 75.2849 31.8243 75.2491 33.5773C75.2325 34.3657 75.2799 35.216 75.232 36H72.0362C71.9629 34.8654 72.2435 32.5731 71.5764 31.8333C70.6451 30.7999 67.3578 31.255 65.8922 31.1638L65.8911 36H62.6926C62.6722 33.2155 62.6656 30.4309 62.6733 27.6464C62.6727 26.2908 62.6071 24.0838 62.7124 22.8146ZM65.8801 28.4526C67.0462 28.457 68.2135 28.4614 69.3797 28.4654C70.2591 28.4684 70.7824 28.4966 71.5289 27.9893C72.2788 27.0126 71.7997 25.6574 70.6076 25.5621C69.0891 25.4406 67.4168 25.5513 65.8873 25.5257C65.8884 26.3708 65.9303 27.642 65.8801 28.4526Z" fill="white"/>
<path d="M36.5434 0H46.9966C47.0845 0.292528 47.0515 2.44723 47.0425 2.86393C46.3708 2.91144 45.204 2.87646 44.499 2.8762L39.7061 2.86942C39.6712 3.61809 39.7204 4.41805 39.6545 5.15841C42.0626 5.18945 44.471 5.18729 46.8791 5.1519C46.8896 6.0281 46.9245 7.07579 46.88 7.93538C46.0965 7.97177 45.0661 7.9426 44.2689 7.94255C42.7432 7.94668 41.2175 7.94293 39.6917 7.93114C39.7213 8.61966 39.7041 9.84768 39.6628 10.5352C42.0697 10.5666 44.6531 10.4775 47.0318 10.5627C47.047 11.4359 47.0823 12.3891 47.052 13.2553C46.4104 13.3285 44.3722 13.2782 43.6213 13.2774L36.4886 13.2788C36.428 12.676 36.4505 11.8533 36.4504 11.2268L36.4505 7.93516C36.4504 6.8921 36.3518 0.521163 36.5434 0Z" fill="white"/>
<path d="M77.1122 22.8206L87.6832 22.8177C87.6765 23.6491 87.7096 24.7204 87.6699 25.5222C85.5223 25.5816 83.3466 25.5013 81.1968 25.5315C80.8897 25.5358 80.5632 25.5365 80.2578 25.524C80.2732 26.3196 80.2787 27.1152 80.2749 27.9108C82.6463 27.9233 85.1419 27.9439 87.5106 27.9035C87.515 28.807 87.5371 29.7695 87.4918 30.6677C86.2082 30.7685 84.4576 30.6645 83.1255 30.696C82.5669 30.7091 80.7193 30.7271 80.2445 30.6696C80.2848 31.5071 80.2749 32.3676 80.2754 33.2076L85.116 33.2214C85.8824 33.2215 86.9482 33.1854 87.6821 33.2193C87.6732 34.1461 87.6699 35.0731 87.6727 36H77.1023L77.0868 27.8233C77.0868 26.2801 77.0361 24.3318 77.1122 22.8206Z" fill="white"/>
<path d="M89.5226 33.1041C90.9694 33.144 92.4212 33.1258 93.8691 33.1271C94.6642 33.1278 95.5497 33.2057 96.331 33.0799C96.546 33.0453 96.7919 32.9535 96.9513 32.8024C97.1685 32.596 97.2915 32.2905 97.2937 31.9928C97.2959 31.7094 97.2115 31.4262 97.0064 31.2231C95.8424 30.0702 89.2612 32.2559 89.1438 26.8849C89.1212 25.8394 89.3864 24.8148 90.1236 24.0417C91.0047 23.1174 92.2999 22.8441 93.53 22.8213C95.6963 22.7811 97.8781 22.7964 100.045 22.8212C100.042 23.7028 100.072 24.7619 100.001 25.6127C97.8583 25.6943 95.5486 25.5276 93.4026 25.6696C92.3837 25.737 92.2916 26.8572 92.8176 27.636C94.9327 28.5599 99.1656 26.9518 100.351 30.0144C100.763 31.0786 100.716 32.7942 100.253 33.8298C99.5868 35.3225 98.1709 35.6217 96.8057 36H89.511C89.5022 35.1455 89.457 33.9394 89.5226 33.1041Z" fill="white"/>
<path d="M101.881 33.109C103.864 33.1679 105.877 33.0978 107.861 33.1289C108.748 33.1427 109.596 32.9843 109.585 31.9121C109.573 30.742 108.202 30.8674 107.403 30.8386C105.734 30.7785 103.675 30.6775 102.371 29.5055C101.625 28.8347 101.449 27.56 101.456 26.6064C101.428 25.6411 101.808 24.7578 102.413 24.0118C102.796 23.5388 103.87 23.1004 104.471 22.9744C105.546 22.7495 106.786 22.8163 107.9 22.817L112.298 22.8232C112.306 23.7511 112.305 24.6791 112.295 25.6071C111.065 25.7163 106.024 25.4316 105.407 25.7372C105.149 25.8645 104.94 26.0929 104.854 26.3685C104.709 26.8337 104.862 27.1984 105.082 27.6053C106.37 28.353 109.874 27.5201 111.427 28.5934C112.426 29.2841 112.669 29.9309 112.922 31.0461V32.5601C112.311 34.9723 111.414 35.4204 109.102 36H101.874C101.85 35.0867 101.833 34.0119 101.881 33.109Z" fill="white"/>
<path d="M63.7645 0H66.8687C66.9718 0.184432 66.9878 0.391197 66.9884 0.598576C67 3.18873 66.9895 5.77907 66.9928 8.36931L66.9966 11.3138C66.9977 11.8674 67.0237 12.6541 66.9481 13.1839C66.6603 13.3396 64.2442 13.2823 63.7446 13.2812C63.6741 12.5711 63.7033 11.3095 63.7055 10.5698L63.7171 6.0931L63.7049 2.19926C63.706 1.56345 63.6873 0.606189 63.7645 0Z" fill="white"/>
</svg>
