<svg width="157" height="32" viewBox="0 0 157 32" fill="none" xmlns="http://www.w3.org/2000/svg">
<g clip-path="url(#clip0_2005_10354)">
<path d="M122.764 7.27764C127.435 6.95268 131.488 10.4725 131.826 15.1471C132.163 19.8218 128.658 23.8883 123.989 24.2389C119.302 24.5908 115.22 21.0656 114.881 16.3727C114.543 11.6799 118.076 7.60387 122.764 7.27764ZM123.854 22.1071C124.583 21.9601 125.154 21.8398 125.816 21.4794C128.409 20.0683 129.289 16.981 128.742 14.2229C128.205 11.51 126.144 9.38668 123.281 9.44132C123.178 9.44331 122.994 9.44884 122.9 9.47086C116.23 10.0713 115.989 20.6718 122.291 22.0112C122.843 22.1284 123.299 22.0957 123.854 22.1071Z" fill="white"/>
<path d="M72.6905 12.0684C74.2802 11.8908 75.8572 12.5372 76.9369 13.6971C80.2708 17.2709 78.4494 24.5895 72.9641 24.381C71.4173 24.3222 70.4856 23.7098 69.4764 22.6048L69.4855 25.976L69.4936 29.5439L67.0023 29.5517C66.9666 28.707 66.957 27.8509 66.9656 27.0053C67.0156 22.0935 66.8829 17.1497 66.9976 12.241L69.5016 12.2494L69.458 13.8806C70.323 12.7211 71.324 12.3319 72.6905 12.0684ZM73.215 22.1009C74.2609 21.7976 75.0892 21.3429 75.576 20.3342C76.8717 17.6491 75.6418 14.1795 72.3091 14.3844C68.2367 15.2561 68.5655 22.2178 73.215 22.1009Z" fill="white"/>
<path d="M98.0506 12.0751C98.5313 11.9923 99.3048 12.057 99.7954 12.1326C103.021 12.6305 104.809 15.83 104.238 18.9601C101.281 19.087 98.112 18.8842 95.1146 19.016C95.3522 19.7553 95.4925 20.2256 95.9908 20.8414C96.5788 21.5609 97.4274 22.0185 98.3504 22.1146C99.524 22.2358 100.751 21.7338 101.34 20.7356C101.439 20.5681 101.753 20.1834 101.881 20.0116C101.953 19.9142 102.212 19.995 102.357 20.0211L104.261 20.5462C101.894 26.3347 93.8167 25.4304 92.8431 19.4068C92.2337 15.6367 94.1739 12.6633 98.0506 12.0751ZM95.343 16.9208C96.5266 16.9119 97.7248 16.9131 98.9069 16.8897L101.796 16.8829C101.416 14.9415 100.184 14.1334 98.2515 14.2897C96.5435 14.6072 95.8911 15.278 95.343 16.9208Z" fill="white"/>
<path d="M138.96 12.0641C139.088 12.0537 139.218 12.0482 139.347 12.0479C144.166 12.0035 143.984 15.9014 143.976 19.5026C143.968 21.0823 143.969 22.662 143.982 24.2416C143.147 24.2361 142.311 24.2363 141.476 24.2425C141.342 21.7462 141.6 19.0697 141.393 16.5874C141.204 14.3298 138.99 13.8452 137.193 14.916C135.374 16.0979 135.603 18.1756 135.609 20.058L135.627 24.2523L133.147 24.2514C133.12 23.6415 133.116 23.0197 133.123 22.4088C133.16 19.0266 133.054 15.6145 133.144 12.2353L135.626 12.2484L135.617 13.9994C136.743 12.7519 137.349 12.4083 138.96 12.0641Z" fill="white"/>
<path d="M62.698 12.23C63.4808 12.2667 64.4132 12.2517 65.2076 12.2588C65.1295 13.4448 65.1784 15.0882 65.1789 16.3069C65.1818 18.8505 65.1055 21.7409 65.2052 24.2507L62.7018 24.2542C62.6597 23.6134 62.6541 23.1872 62.6771 22.5453C61.9236 23.4814 60.9592 24.2154 59.77 24.3472C54.5617 24.9372 54.1051 20.7345 54.3282 16.6658C54.3674 15.9513 54.1866 12.6342 54.4785 12.2386L56.8785 12.2548C56.8152 13.5277 56.8677 15.027 56.8491 16.3175C56.8776 17.5599 56.7623 18.8266 56.9559 20.0566C57.3477 22.5444 59.9973 22.5811 61.5378 21.2083C62.0153 20.7809 62.3563 20.222 62.5182 19.6016C62.7479 18.7542 62.6621 17.5809 62.6716 16.6886C62.6873 15.2127 62.6121 13.7041 62.698 12.23Z" fill="white"/>
<path d="M49.9349 7.30766C50.8184 7.31822 51.7021 7.31459 52.5855 7.29675L52.5875 14.7237C52.5902 18.1113 53.1313 22.7711 49.1225 24.0949C46.5778 24.9352 43.6729 24.2706 42.226 21.9125C41.5605 20.8087 41.419 19.7243 41.3859 18.4621C41.9852 18.2542 43.2819 17.9809 43.9875 17.7898C44.0069 19.6891 44.4485 21.9259 46.8654 22.0791C48.3121 22.1672 49.649 20.9879 49.7723 19.5485C50.1151 15.5445 49.7901 11.3185 49.9349 7.30766Z" fill="white"/>
<path d="M86.5256 8.85669C87.1641 8.88777 87.9767 8.87265 88.6276 8.87764L88.6337 12.368C89.7882 12.3524 90.9726 12.3659 92.1302 12.3657C92.1095 13.068 92.1271 13.8643 92.1279 14.5737L88.623 14.5759C88.6544 16.0505 88.4812 20.0278 88.8139 21.2582C89.7836 22.3829 90.8285 22.1816 92.1179 21.8887L92.1256 23.7315C92.1248 24.0604 92.1746 24.0278 92.0198 24.2644C91.5292 24.5322 91.1758 24.5091 90.6637 24.5292C85.4669 24.7332 85.9951 20.7724 86.0096 16.9357C86.0119 16.159 86.015 15.3283 86.0188 14.5706L83.8064 14.5781C83.7896 14.0405 83.7965 13.4624 83.7934 12.9212C86.6728 12.0053 86.1338 9.25366 86.5256 8.85669Z" fill="white"/>
<path d="M112.274 12.1526C112.651 12.0558 113.715 12.2089 114.142 12.2619C113.857 13.2381 113.697 13.9851 113.597 15.0002C111.482 14.278 108.916 14.8877 108.491 17.207C108.144 19.0988 108.327 22.2385 108.339 24.2433L105.899 24.2327C105.839 23.9391 105.862 21.2266 105.862 20.8121L105.875 12.2362L108.359 12.2534C108.311 12.8516 108.325 13.8125 108.317 14.438C109.302 12.8656 110.479 12.367 112.274 12.1526Z" fill="white"/>
<path d="M79.9542 12.9636C80.7607 13.24 81.6469 13.1475 82.4672 12.9918C82.4089 14.3304 82.4426 15.8574 82.4426 17.2172L82.4511 24.2368C82.2847 24.3798 80.3283 24.3212 79.9596 24.3189C79.8416 20.872 79.9059 16.4327 79.9542 12.9636Z" fill="white"/>
<path d="M80.6794 8.01649C81.5457 7.72388 82.4848 8.18654 82.7815 9.05177C83.0781 9.91692 82.6205 10.8595 81.758 11.1609C80.8887 11.4645 79.9389 11.0026 79.6399 10.1312C79.341 9.25965 79.8078 8.31116 80.6794 8.01649Z" fill="white"/>
<path d="M15.138 0H16.8264C21.5 0.471081 25.3411 2.16497 28.3722 5.88025C31.0419 9.14563 32.3087 13.3377 31.8945 17.5368C31.4883 21.7788 29.3996 25.6805 26.096 28.3681C24.1651 29.9508 21.8889 31.0562 19.4519 31.5947C18.8769 31.7221 17.5221 31.877 17.1325 32H14.8255C14.3382 31.8412 12.9941 31.7089 12.3364 31.5516C10.1244 31.0229 8.05898 30.0737 6.25581 28.6923C3.47408 26.5512 1.46708 23.5591 0.540091 20.1714C0.250207 19.0719 0.146927 18.1303 0 17.0244V14.9714C0.332269 12.5026 0.581547 10.88 1.78019 8.6288C4.64374 3.2507 9.21378 0.622442 15.138 0ZM3.01865 18.8219C3.38679 20.1699 3.75826 21.183 4.42341 22.4299L13.7605 22.4249L22.617 22.4229C23.9006 22.4229 26.0737 22.358 27.3068 22.4566C28.6789 19.7923 29.1703 17.8274 29.0228 14.8122L22.2531 14.8148C21.132 14.8148 19.6061 14.7728 18.5213 14.836C16.8115 15.1995 15.7893 16.11 14.2939 17.0248C10.5002 19.3455 7.2475 18.7552 3.01865 18.8219ZM25.8563 7.28477C23.4075 4.52973 20.3604 2.9602 16.6448 2.7011C16.3376 2.67967 15.3697 2.66823 15.0973 2.71968C11.4539 3.05013 8.26404 4.43421 5.88075 7.28498L16.7502 7.28988L25.8563 7.28477ZM5.87111 24.476C10.6371 29.5814 17.4882 30.6448 23.3633 26.7157C24.4652 25.8822 24.9224 25.485 25.8696 24.4692C19.3056 24.4548 12.4044 24.3519 5.87111 24.476ZM4.4107 9.29381C3.01948 11.9625 2.65781 13.8064 2.70327 16.8378C5.16397 16.8612 8.23867 17.0386 10.6126 16.4825C13.1153 15.8962 15.284 13.551 17.5987 12.9928C18.7904 12.7054 21.6318 12.8054 22.9597 12.8117L28.7416 12.8108C28.346 11.3833 28.0804 10.6349 27.3487 9.29274L13.0806 9.30456C10.315 9.30417 7.14769 9.37884 4.4107 9.29381Z" fill="white"/>
<path d="M21.8483 16.4446C23.1228 16.3355 24.2459 17.2775 24.3618 18.5526C24.4776 19.8278 23.5426 20.9571 22.2693 21.0799C20.9865 21.2035 19.8479 20.2589 19.7313 18.9741C19.6146 17.6893 20.5642 16.5546 21.8483 16.4446Z" fill="white"/>
<path d="M156.847 20.5263C155.592 24.4394 150.508 25.6288 147.459 23.0853C143.565 19.8385 145.213 12.2772 150.804 12.07C154.686 11.9261 156.704 14.1441 157 17.9022V18.887C156.694 19.0634 148.91 18.9641 147.795 19.0133C147.814 19.0939 147.835 19.1743 147.855 19.2544C148.509 21.7214 150.967 22.9739 153.251 21.496C153.816 21.1312 154.199 20.481 154.527 19.908C155.267 20.0792 156.105 20.3261 156.847 20.5263ZM147.982 16.9149C149.142 16.92 150.301 16.9119 151.461 16.8905L154.439 16.8831C153.96 15.004 152.902 14.0691 150.909 14.2922C149.124 14.598 148.574 15.2531 147.982 16.9149Z" fill="white"/>
</g>
<defs>
<clipPath id="clip0_2005_10354">
<rect width="157" height="32" fill="white"/>
</clipPath>
</defs>
</svg>
