<svg width="64" height="64" viewBox="0 0 64 64" fill="none" xmlns="http://www.w3.org/2000/svg">
<g clip-path="url(#clip0_2006_22848)">
<path fill-rule="evenodd" clip-rule="evenodd" d="M32 57C45.8071 57 57 45.8071 57 32C57 18.1929 45.8071 7 32 7C18.1929 7 7 18.1929 7 32C7 45.8071 18.1929 57 32 57ZM18.2058 15.8364C27.153 8.21999 40.5344 9.28001 48.1472 18.192H15.8513C16.5577 17.3676 17.3425 16.5431 18.2058 15.8364ZM53.1702 30.2446H38.0622C37.0418 30.2053 35.9824 30.3231 35.0013 30.5586C34.2949 30.7943 33.6279 31.1476 33.0392 31.5795L32.9608 31.6186L32.9511 31.625C30.2464 33.3898 27.4237 35.2317 24.0922 36.1335C22.0123 36.6832 19.8933 36.7225 17.8527 36.7225H17.1856H11.2993C11.7702 38.7639 12.5551 40.7662 13.6146 42.5723H50.4233C52.307 39.3529 53.288 35.6625 53.2489 31.9328C53.2489 31.4175 53.2143 30.9021 53.1776 30.3546L53.1702 30.2446ZM45.6752 36.6439C45.6752 38.6855 43.9878 40.3736 41.9472 40.3736C39.9065 40.3736 38.2193 38.6855 38.2193 36.6439C38.2193 34.6025 39.9065 32.9144 41.9472 32.9144C43.9878 32.9144 45.6752 34.6025 45.6752 36.6439ZM48.1472 45.792C40.5344 54.7038 27.1137 55.8032 18.2058 48.1475C17.3425 47.4015 16.5577 46.6163 15.8513 45.792H48.1472ZM10.75 32.0117C10.75 32.522 10.7892 33.0717 10.8285 33.582H17.1856C19.2262 33.582 21.3453 33.582 23.2681 33.0717C26.0935 32.3256 28.6049 30.7159 31.2343 28.9885L31.3127 28.9494C32.176 28.3211 33.1177 27.85 34.1381 27.5359C35.4331 27.1826 36.7672 27.0648 38.1016 27.0648H52.7387C52.2679 25.0626 51.5222 23.1388 50.4627 21.3721H13.5754C11.731 24.5914 10.75 28.2819 10.75 32.0117Z" fill="white"/>
</g>
<defs>
<clipPath id="clip0_2006_22848">
<rect x="7" y="7" width="50" height="50" rx="11.75" fill="white"/>
</clipPath>
</defs>
</svg>
