<svg width="64" height="64" viewBox="0 0 64 64" fill="none" xmlns="http://www.w3.org/2000/svg">
<path d="M53.0628 13.9866L46.8566 11.0452L43.4718 14.3536L49.489 17.1101C49.1135 22.2576 47.232 34.0191 44.975 40.2717C43.4704 44.6838 35.7623 49.8299 31.9993 52.2195C30.6824 51.4855 28.8023 50.1969 26.9222 48.9111L43.0949 33.103C45.7273 30.53 45.7273 26.4862 43.0949 23.9118C40.4625 21.3373 36.3255 21.3387 33.6916 23.9118L27.1099 30.3451C26.1713 31.2625 24.8529 31.2625 23.9129 30.3451C23.5375 29.9781 23.3497 29.4277 23.3497 28.8744C23.3497 28.3211 23.5375 27.7735 23.9129 27.4037L42.3441 9.38956C38.7716 8.10233 35.0086 7 32.0007 7C24.4775 7 11.6909 13.8031 11.1263 14.1701L10 14.5371V15.8243C10 20.7869 12.4447 34.5737 14.7017 41.5589C15.2648 43.0296 16.2063 44.5004 17.3341 45.9711L20.5311 42.8462C19.9679 41.9287 19.2141 41.0085 19.0264 40.0896C16.9702 33.8384 14.8879 22.0741 14.511 16.9266C18.6481 14.904 27.2991 11.0452 32.0007 11.0452C32.5639 11.0452 33.3176 11.0452 34.07 11.2287L20.9051 24.0967C19.5881 25.3839 19.025 27.0381 19.025 28.6923C19.025 30.3465 19.5881 32.0007 20.9051 33.2879C23.5375 35.861 27.6745 35.861 30.3084 33.2879L36.8901 26.8546C37.8287 25.9372 39.1471 25.9372 40.0871 26.8546C40.4625 27.2216 40.838 27.7721 40.838 28.3253C40.838 28.8786 40.6503 29.4263 40.0871 29.796L20.3419 49.096C24.8558 52.9562 30.1206 56.0826 30.873 56.4495L31.9993 57L33.1256 56.4495C46.2891 49.4629 49.1106 42.2957 49.2984 41.5589C51.5553 34.5723 54 20.6034 54 15.8243V14.5371L53.0628 13.9866Z" fill="white"/>
</svg>
