<svg width="188" height="24" viewBox="0 0 188 24" fill="none" xmlns="http://www.w3.org/2000/svg">
<path d="M21.3265 1.08C21.3265 1.272 21.1345 1.368 20.7505 1.368C20.6865 1.368 20.4732 1.35733 20.1105 1.336C20.0038 1.31467 19.8545 1.304 19.6625 1.304C19.1292 1.304 18.8092 1.44267 18.7025 1.72C18.6598 1.86933 18.6385 2.11467 18.6385 2.456V14.456C18.6385 17.5707 18.0518 19.8427 16.8785 21.272C15.7265 22.68 13.8598 23.384 11.2785 23.384C8.18517 23.384 6.00916 22.5093 4.7505 20.76C3.9185 19.5867 3.5025 17.656 3.5025 14.968L3.4705 2.136C3.4065 1.752 3.1505 1.51733 2.7025 1.432C2.5745 1.41067 2.17983 1.4 1.5185 1.4C1.15583 1.35733 0.974498 1.25067 0.974498 1.08C0.974498 0.887999 1.12383 0.792 1.4225 0.792H1.9985C2.10516 0.792 2.3505 0.802666 2.7345 0.823999C3.07583 0.823999 3.38516 0.823999 3.6625 0.823999L8.2385 0.792C8.34517 0.770665 8.47317 0.759998 8.6225 0.759998C8.98516 0.759998 9.1665 0.877332 9.1665 1.112C9.1665 1.26133 9.1025 1.34667 8.9745 1.368C8.8465 1.38933 8.41983 1.41067 7.6945 1.432C7.39583 1.432 7.19316 1.45333 7.0865 1.496C6.87316 1.58133 6.75583 1.73067 6.7345 1.944C6.71316 2.02933 6.7025 2.63733 6.7025 3.768V15.224C6.7025 18.04 7.1505 19.96 8.0465 20.984C8.9425 22.008 10.2758 22.52 12.0465 22.52C15.2892 22.52 17.1238 20.6747 17.5505 16.984C17.6145 16.4293 17.6465 14.0827 17.6465 9.944V8.12L17.6785 5.56L17.6465 3.352C17.6465 3.13867 17.6465 2.904 17.6465 2.648C17.6678 2.37067 17.6785 2.25333 17.6785 2.296C17.6785 1.82667 17.4545 1.53867 17.0065 1.432C16.8572 1.38933 16.4198 1.368 15.6945 1.368C15.2678 1.368 15.0545 1.25067 15.0545 1.016C15.0545 0.823999 15.2038 0.727999 15.5025 0.727999C15.6732 0.727999 15.8118 0.738665 15.9185 0.759998C16.1745 0.781333 17.1025 0.792 18.7025 0.792C18.9372 0.792 19.2038 0.781333 19.5025 0.759998C19.7798 0.759998 19.9825 0.759998 20.1105 0.759998H20.5905C21.0812 0.759998 21.3265 0.866665 21.3265 1.08ZM36.655 8.696C36.655 8.86667 36.4203 8.952 35.951 8.952C35.887 8.952 35.7377 8.94133 35.503 8.92H35.151C34.959 8.92 34.8417 8.96267 34.799 9.048C34.7777 9.13333 34.767 9.42133 34.767 9.912V21.656C34.767 22.424 34.7563 22.872 34.735 23C34.7137 23.128 34.6177 23.192 34.447 23.192C34.2123 23.192 33.455 22.3067 32.175 20.536C32.0257 20.3013 31.791 19.9813 31.471 19.576C31.4283 19.512 31.311 19.352 31.119 19.096C30.0523 17.688 28.1217 15.0427 25.327 11.16V21.24C25.327 22.0293 25.4337 22.4453 25.647 22.488C25.8817 22.5307 26.2977 22.552 26.895 22.552H27.023C27.279 22.552 27.407 22.6267 27.407 22.776C27.407 22.9467 27.1723 23.032 26.703 23.032C26.6177 23.032 26.2657 23.0107 25.647 22.968C25.327 22.9467 25.039 22.936 24.783 22.936C24.5697 22.936 24.3563 22.9467 24.143 22.968C23.7377 23.0107 23.3003 23.032 22.831 23.032C22.4897 23.032 22.319 22.9467 22.319 22.776C22.319 22.6267 22.5217 22.552 22.927 22.552H23.215L23.631 22.52C24.143 22.4773 24.4097 22.3813 24.431 22.232C24.4523 22.1467 24.463 21.8373 24.463 21.304V12.504C24.463 10.904 24.367 9.944 24.175 9.624C23.919 9.19733 23.4177 8.984 22.671 8.984C22.1377 8.984 21.871 8.888 21.871 8.696C21.871 8.54667 22.0097 8.472 22.287 8.472H22.415L24.175 8.504C24.2603 8.504 24.399 8.504 24.591 8.504C24.8043 8.48267 24.9963 8.472 25.167 8.472H26.351L33.903 18.84V9.944C33.903 9.41067 33.8817 9.10133 33.839 9.016C33.7963 8.93067 33.6257 8.888 33.327 8.888C33.0497 8.888 32.8257 8.89867 32.655 8.92H32.463C32.0577 8.92 31.855 8.83467 31.855 8.664C31.855 8.55733 31.951 8.49333 32.143 8.472C32.3563 8.45067 33.0817 8.44 34.319 8.44C35.4923 8.44 36.175 8.45067 36.367 8.472C36.559 8.49333 36.655 8.568 36.655 8.696ZM53.6025 22.712C53.6025 22.84 53.5598 22.9147 53.4745 22.936C53.4105 22.9573 53.1652 22.968 52.7385 22.968H52.0985L47.3945 23C47.0105 23 46.8185 22.936 46.8185 22.808C46.8185 22.6587 47.1705 22.552 47.8745 22.488C48.3012 22.4453 48.5145 22.36 48.5145 22.232C48.5145 22.1467 48.2692 21.8373 47.7785 21.304C47.3305 20.8347 45.6132 18.968 42.6265 15.704V21.464C42.6265 21.976 42.6905 22.2747 42.8185 22.36C42.9465 22.4453 43.3625 22.4987 44.0665 22.52C44.3012 22.52 44.4185 22.6053 44.4185 22.776C44.4185 22.9253 44.2585 23 43.9385 23H43.7145C43.5012 22.9573 42.4772 22.936 40.6425 22.936C39.8318 22.936 39.2345 22.9573 38.8505 23H38.6265C38.3278 23 38.1785 22.9147 38.1785 22.744C38.1785 22.552 38.4878 22.4667 39.1065 22.488C39.5332 22.488 39.7785 22.424 39.8425 22.296C39.9065 22.168 39.9385 21.7093 39.9385 20.92V10.2C39.9385 9.60267 39.9278 9.272 39.9065 9.208C39.8425 9.03733 39.5438 8.952 39.0105 8.952C38.4772 8.952 38.2105 8.856 38.2105 8.664C38.2105 8.51467 38.3598 8.44 38.6585 8.44C38.7012 8.44 38.8078 8.44 38.9785 8.44C39.1705 8.46133 39.3305 8.472 39.4585 8.472L41.5385 8.504C41.6452 8.504 42.0932 8.49333 42.8825 8.472L43.9705 8.44C44.2692 8.44 44.4185 8.52533 44.4185 8.696C44.4185 8.84533 44.0665 8.93067 43.3625 8.952C43.0212 8.97333 42.8078 9.016 42.7225 9.08C42.6585 9.12267 42.6265 9.29333 42.6265 9.592V14.872C46.6158 11.1813 48.6105 9.26133 48.6105 9.112C48.6105 9.00533 48.1732 8.952 47.2985 8.952C47.0425 8.952 46.9145 8.86667 46.9145 8.696C46.9145 8.568 46.9892 8.49333 47.1385 8.472C47.2878 8.45067 47.8212 8.44 48.7385 8.44C50.3812 8.44 51.3412 8.45067 51.6185 8.472C51.8958 8.49333 52.0345 8.57867 52.0345 8.728C52.0345 8.94133 51.8425 9.03733 51.4585 9.016L50.5625 8.984C50.2638 8.96267 49.9012 9.15467 49.4745 9.56C49.1972 9.79467 48.7705 10.1787 48.1945 10.712C47.3412 11.5227 46.0398 12.728 44.2905 14.328C44.5678 14.6267 45.5812 15.6613 47.3305 17.432L51.1065 21.24C51.7038 21.8373 52.0985 22.2 52.2905 22.328C52.4825 22.4347 52.7918 22.488 53.2185 22.488C53.4745 22.488 53.6025 22.5627 53.6025 22.712ZM68.045 8.696C68.045 8.86667 67.8103 8.952 67.341 8.952C67.277 8.952 67.1277 8.94133 66.893 8.92H66.541C66.349 8.92 66.2317 8.96267 66.189 9.048C66.1677 9.13333 66.157 9.42133 66.157 9.912V21.656C66.157 22.424 66.1463 22.872 66.125 23C66.1037 23.128 66.0077 23.192 65.837 23.192C65.6023 23.192 64.845 22.3067 63.565 20.536C63.4157 20.3013 63.181 19.9813 62.861 19.576C62.8183 19.512 62.701 19.352 62.509 19.096C61.4423 17.688 59.5117 15.0427 56.717 11.16V21.24C56.717 22.0293 56.8237 22.4453 57.037 22.488C57.2717 22.5307 57.6877 22.552 58.285 22.552H58.413C58.669 22.552 58.797 22.6267 58.797 22.776C58.797 22.9467 58.5623 23.032 58.093 23.032C58.0077 23.032 57.6557 23.0107 57.037 22.968C56.717 22.9467 56.429 22.936 56.173 22.936C55.9597 22.936 55.7463 22.9467 55.533 22.968C55.1277 23.0107 54.6903 23.032 54.221 23.032C53.8797 23.032 53.709 22.9467 53.709 22.776C53.709 22.6267 53.9117 22.552 54.317 22.552H54.605L55.021 22.52C55.533 22.4773 55.7997 22.3813 55.821 22.232C55.8423 22.1467 55.853 21.8373 55.853 21.304V12.504C55.853 10.904 55.757 9.944 55.565 9.624C55.309 9.19733 54.8077 8.984 54.061 8.984C53.5277 8.984 53.261 8.888 53.261 8.696C53.261 8.54667 53.3997 8.472 53.677 8.472H53.805L55.565 8.504C55.6503 8.504 55.789 8.504 55.981 8.504C56.1943 8.48267 56.3863 8.472 56.557 8.472H57.741L65.293 18.84V9.944C65.293 9.41067 65.2717 9.10133 65.229 9.016C65.1863 8.93067 65.0157 8.888 64.717 8.888C64.4397 8.888 64.2157 8.89867 64.045 8.92H63.853C63.4477 8.92 63.245 8.83467 63.245 8.664C63.245 8.55733 63.341 8.49333 63.533 8.472C63.7463 8.45067 64.4717 8.44 65.709 8.44C66.8823 8.44 67.565 8.45067 67.757 8.472C67.949 8.49333 68.045 8.568 68.045 8.696ZM84.0645 15.832C84.0645 17.9013 83.3925 19.6613 82.0485 21.112C80.7045 22.5413 79.0618 23.256 77.1205 23.256C75.0512 23.256 73.3018 22.5307 71.8725 21.08C70.4645 19.608 69.7605 17.816 69.7605 15.704C69.7605 13.5067 70.4325 11.7147 71.7765 10.328C73.1418 8.92 74.8805 8.216 76.9925 8.216C78.9978 8.216 80.6725 8.952 82.0165 10.424C83.3818 11.8747 84.0645 13.6773 84.0645 15.832ZM81.0565 15.928C81.0565 13.4533 80.5552 11.5013 79.5525 10.072C78.9125 9.15467 78.0272 8.696 76.8965 8.696C75.3392 8.696 74.2085 9.54933 73.5045 11.256C73.0138 12.4507 72.7685 13.9653 72.7685 15.8C72.7685 17.9973 73.1525 19.7147 73.9205 20.952C74.6885 22.1893 75.7552 22.808 77.1205 22.808C79.7445 22.808 81.0565 20.5147 81.0565 15.928ZM106.877 8.664C106.877 8.81333 106.599 8.89867 106.045 8.92C105.49 8.94133 105.149 9.112 105.021 9.432C104.743 10.0933 104.466 10.7973 104.189 11.544C103.399 13.6987 102.205 16.8347 100.605 20.952C100.498 21.2933 100.327 21.7733 100.093 22.392C99.9434 22.968 99.7407 23.256 99.4847 23.256C99.2501 23.256 99.0581 23.0213 98.9087 22.552C98.7594 22.0827 98.1194 20.568 96.9887 18.008C96.7114 17.368 96.4234 16.696 96.1247 15.992C94.8021 18.936 93.8847 21.0907 93.3727 22.456C93.1807 22.9893 92.9461 23.256 92.6687 23.256C92.5194 23.256 92.3914 23.1173 92.2847 22.84C92.2421 22.712 92.1247 22.4133 91.9327 21.944C91.5914 21.1547 91.1007 19.992 90.4607 18.456L89.2127 15.416C89.0421 14.9467 88.7647 14.2533 88.3807 13.336C87.6981 11.672 87.2074 10.4453 86.9087 9.656C86.7381 9.208 86.4714 8.97333 86.1087 8.952C85.2341 8.90933 84.7967 8.80267 84.7967 8.632C84.7967 8.48267 84.9887 8.408 85.3727 8.408C85.3727 8.408 85.4687 8.408 85.6607 8.408C85.8314 8.42933 86.0021 8.44 86.1727 8.44H87.6127C89.1701 8.44 90.0447 8.42933 90.2367 8.408H90.9407C91.2181 8.408 91.3567 8.48267 91.3567 8.632C91.3567 8.824 91.1434 8.92 90.7167 8.92C89.8847 8.94133 89.4687 9.02667 89.4687 9.176C89.4687 9.24 89.5114 9.38933 89.5967 9.624C89.6821 9.83733 89.7887 10.1253 89.9167 10.488C91.0474 13.56 92.2634 16.6533 93.5647 19.768L95.3887 15.576C95.4527 15.448 95.5381 15.2453 95.6447 14.968C95.4527 14.52 95.1114 13.7307 94.6207 12.6L93.9167 10.936C93.6607 10.3387 93.3941 9.73067 93.1167 9.112C92.9674 8.96267 92.6047 8.89867 92.0287 8.92C91.7941 8.92 91.6767 8.83467 91.6767 8.664C91.6767 8.49333 91.8154 8.408 92.0927 8.408H92.3167C92.4234 8.408 92.8074 8.408 93.4687 8.408C94.1301 8.42933 94.7807 8.44 95.4207 8.44H96.8607L98.1727 8.472H98.9087C99.1861 8.472 99.5701 8.46133 100.061 8.44C100.573 8.41867 100.893 8.408 101.021 8.408H101.309C101.714 8.408 101.917 8.48267 101.917 8.632C101.917 8.80267 101.778 8.888 101.501 8.888H101.117C100.583 8.888 100.221 8.92 100.029 8.984C99.6874 9.112 99.4314 9.368 99.2607 9.752L99.0367 10.264C98.8021 10.776 98.4501 11.544 97.9807 12.568C97.7887 12.9947 97.6607 13.304 97.5967 13.496C97.7887 13.9867 98.1087 14.7333 98.5567 15.736C99.1327 17.016 99.6874 18.328 100.221 19.672C102.759 13.0587 104.029 9.592 104.029 9.272C104.029 9.03733 103.826 8.92 103.421 8.92C102.759 8.92 102.386 8.86667 102.301 8.76C102.279 8.73867 102.269 8.696 102.269 8.632C102.269 8.48267 102.439 8.408 102.781 8.408H103.357C103.527 8.408 103.858 8.408 104.349 8.408C104.839 8.42933 105.287 8.44 105.693 8.44C106.482 8.44 106.877 8.51467 106.877 8.664ZM98.5567 9.208C98.5567 9.016 97.9701 8.92 96.7967 8.92C96.1781 8.92 95.8687 8.99467 95.8687 9.144C95.8687 9.18667 96.1887 10.0507 96.8287 11.736C96.8714 11.8213 96.9674 12.088 97.1167 12.536C97.5647 11.576 97.8421 10.968 97.9487 10.712L98.2687 9.944C98.4607 9.47467 98.5567 9.22933 98.5567 9.208ZM121.317 8.696C121.317 8.86667 121.083 8.952 120.613 8.952C120.549 8.952 120.4 8.94133 120.165 8.92H119.813C119.621 8.92 119.504 8.96267 119.461 9.048C119.44 9.13333 119.429 9.42133 119.429 9.912V21.656C119.429 22.424 119.419 22.872 119.397 23C119.376 23.128 119.28 23.192 119.109 23.192C118.875 23.192 118.117 22.3067 116.837 20.536C116.688 20.3013 116.453 19.9813 116.133 19.576C116.091 19.512 115.973 19.352 115.781 19.096C114.715 17.688 112.784 15.0427 109.989 11.16V21.24C109.989 22.0293 110.096 22.4453 110.309 22.488C110.544 22.5307 110.96 22.552 111.557 22.552H111.685C111.941 22.552 112.069 22.6267 112.069 22.776C112.069 22.9467 111.835 23.032 111.365 23.032C111.28 23.032 110.928 23.0107 110.309 22.968C109.989 22.9467 109.701 22.936 109.445 22.936C109.232 22.936 109.019 22.9467 108.805 22.968C108.4 23.0107 107.963 23.032 107.493 23.032C107.152 23.032 106.981 22.9467 106.981 22.776C106.981 22.6267 107.184 22.552 107.589 22.552H107.877L108.293 22.52C108.805 22.4773 109.072 22.3813 109.093 22.232C109.115 22.1467 109.125 21.8373 109.125 21.304V12.504C109.125 10.904 109.029 9.944 108.837 9.624C108.581 9.19733 108.08 8.984 107.333 8.984C106.8 8.984 106.533 8.888 106.533 8.696C106.533 8.54667 106.672 8.472 106.949 8.472H107.077L108.837 8.504C108.923 8.504 109.061 8.504 109.253 8.504C109.467 8.48267 109.659 8.472 109.829 8.472H111.013L118.565 18.84V9.944C118.565 9.41067 118.544 9.10133 118.501 9.016C118.459 8.93067 118.288 8.888 117.989 8.888C117.712 8.888 117.488 8.89867 117.317 8.92H117.125C116.72 8.92 116.517 8.83467 116.517 8.664C116.517 8.55733 116.613 8.49333 116.805 8.472C117.019 8.45067 117.744 8.44 118.981 8.44C120.155 8.44 120.837 8.45067 121.029 8.472C121.221 8.49333 121.317 8.568 121.317 8.696ZM149.066 22.776C149.066 22.968 148.906 23.064 148.586 23.064C148.373 23.064 148.181 23.0533 148.01 23.032L143.946 22.968L139.882 23.032C139.733 23.0533 139.573 23.064 139.402 23.064C138.976 23.064 138.762 22.9573 138.762 22.744C138.762 22.5093 139.05 22.392 139.626 22.392C141.504 22.3707 142.442 22.1787 142.442 21.816C142.442 21.7947 142.421 21.7093 142.378 21.56L142.122 20.696L141.962 20.248C141.77 19.5867 141.301 18.1253 140.554 15.864H133.706C132.426 19.2773 131.786 21.24 131.786 21.752C131.786 22.0507 131.914 22.232 132.17 22.296C132.234 22.3173 132.768 22.36 133.77 22.424C134.389 22.4453 134.698 22.552 134.698 22.744C134.698 22.9573 134.421 23.064 133.866 23.064C132.885 23.064 131.744 23.0213 130.442 22.936C130.122 22.9147 129.792 22.904 129.45 22.904C129.109 22.904 128.778 22.9253 128.458 22.968C128.288 22.9893 128.149 23 128.042 23C127.744 23 127.594 22.904 127.594 22.712C127.594 22.52 127.925 22.4133 128.586 22.392C129.269 22.3707 129.76 22.2747 130.058 22.104C130.357 21.912 130.592 21.56 130.762 21.048C133.514 13.1973 135.754 6.89333 137.482 2.136C137.525 1.88 137.61 1.592 137.738 1.272L137.898 0.695999C137.962 0.461333 138.048 0.344 138.154 0.344C138.218 0.344 138.272 0.408 138.314 0.535999C138.592 1.368 139.221 3.10667 140.202 5.752C140.97 7.82133 142.88 13.016 145.93 21.336C146.101 21.8053 146.314 22.104 146.57 22.232C146.848 22.36 147.402 22.4347 148.234 22.456C148.789 22.4773 149.066 22.584 149.066 22.776ZM140.362 15.128C140.021 14.168 139.456 12.5787 138.666 10.36L137.13 5.976C136.234 8.32267 135.157 11.3733 133.898 15.128H140.362ZM162.076 22.232C162.076 22.9147 161.479 23.256 160.284 23.256C159.132 23.256 158.194 22.8187 157.468 21.944C157.148 21.56 156.935 21.176 156.828 20.792C156.722 20.408 156.594 19.5013 156.444 18.072C156.338 17.1547 156.039 16.5147 155.548 16.152C155.079 15.7893 154.258 15.5867 153.084 15.544V22.136C153.02 22.4347 153.564 22.584 154.716 22.584C154.951 22.584 155.068 22.6587 155.068 22.808C155.068 22.9573 154.919 23.032 154.62 23.032C154.386 23.032 154.162 23.0213 153.948 23H152.828C152.359 23 151.794 23.0107 151.132 23.032C150.492 23.032 150.14 23.032 150.076 23.032H149.468C148.871 23.032 148.572 22.9573 148.572 22.808C148.572 22.6373 148.679 22.552 148.892 22.552C148.956 22.552 149.063 22.5627 149.212 22.584H149.34C150.066 22.584 150.428 22.4347 150.428 22.136V9.496C150.428 9.26133 150.364 9.112 150.236 9.048C150.13 8.96267 149.82 8.92 149.308 8.92C148.818 8.92 148.572 8.83467 148.572 8.664C148.572 8.51467 148.722 8.44 149.02 8.44H149.244C149.586 8.48267 150.599 8.504 152.284 8.504C152.988 8.504 153.564 8.49333 154.012 8.472C154.46 8.45067 154.812 8.44 155.068 8.44C156.498 8.44 157.639 8.73867 158.492 9.336C159.367 9.912 159.804 10.68 159.804 11.64C159.804 12.6853 159.346 13.5387 158.428 14.2C157.511 14.84 156.22 15.2133 154.556 15.32C156.348 15.512 157.575 15.9813 158.236 16.728C158.919 17.4747 159.356 18.8187 159.548 20.76C159.676 22.0827 160.071 22.744 160.732 22.744C160.839 22.744 160.892 22.712 160.892 22.648C160.892 22.6267 160.86 22.5627 160.796 22.456C160.754 22.328 160.732 22.232 160.732 22.168C160.732 21.7627 160.946 21.56 161.372 21.56C161.842 21.56 162.076 21.784 162.076 22.232ZM157.02 11.832C157.02 9.912 156.071 8.952 154.172 8.952C153.682 8.952 153.372 9.00533 153.244 9.112C153.138 9.19733 153.084 9.42133 153.084 9.784V15.032C155.708 15.032 157.02 13.9653 157.02 11.832ZM175.405 12.44C175.405 12.7387 175.277 12.888 175.021 12.888C174.744 12.888 174.595 12.6853 174.573 12.28C174.509 11.4053 174.328 10.6907 174.029 10.136C173.624 9.368 172.696 8.984 171.245 8.984C171.032 8.984 170.701 8.99467 170.253 9.016V21.88C170.253 22.2853 170.563 22.4987 171.181 22.52C171.8 22.5413 172.109 22.6267 172.109 22.776C172.109 22.9253 171.928 23 171.565 23H171.341C171.149 23 170.851 22.9893 170.445 22.968C170.04 22.968 169.752 22.968 169.581 22.968C169.539 22.968 169.293 22.968 168.845 22.968C168.397 22.9893 167.821 23 167.117 23H166.349C165.923 23 165.709 22.9253 165.709 22.776C165.709 22.6267 166.061 22.5413 166.765 22.52C167.021 22.52 167.192 22.4987 167.277 22.456C167.448 22.4133 167.544 22.3067 167.565 22.136C167.587 21.944 167.597 21.4 167.597 20.504V9.016C165.933 8.99467 164.845 9.16533 164.333 9.528C163.843 9.89067 163.512 10.744 163.341 12.088C163.277 12.5787 163.139 12.824 162.925 12.824C162.733 12.824 162.637 12.5787 162.637 12.088C162.637 11.4693 162.733 10.2533 162.925 8.44L170.381 8.504C171.043 8.504 172.387 8.48267 174.413 8.44C174.584 8.44 174.808 8.39733 175.085 8.312L175.117 8.984L175.213 10.136L175.309 11.48L175.373 12.056C175.395 12.248 175.405 12.376 175.405 12.44ZM186.984 18.904C186.984 20.0987 186.472 21.1227 185.448 21.976C184.424 22.8293 183.186 23.256 181.736 23.256C180.648 23.256 179.528 22.9147 178.376 22.232C178.248 22.1893 178.162 22.168 178.12 22.168C177.992 22.168 177.917 22.2747 177.896 22.488C177.874 22.7013 177.842 22.8827 177.8 23.032C177.757 23.2027 177.65 23.288 177.48 23.288C177.266 23.288 177.16 23.1813 177.16 22.968C177.16 22.9253 177.192 22.6053 177.256 22.008C177.32 21.4107 177.352 20.8987 177.352 20.472C177.352 20.28 177.341 20.0133 177.32 19.672C177.298 19.3093 177.288 19.032 177.288 18.84C177.288 18.4347 177.394 18.232 177.608 18.232C177.821 18.232 177.981 18.5627 178.088 19.224C178.493 21.5707 179.752 22.744 181.864 22.744C183.656 22.744 184.552 21.848 184.552 20.056C184.552 19.2667 184.338 18.6267 183.912 18.136C183.485 17.6453 182.653 17.0907 181.416 16.472C179.794 15.6613 178.76 15.0213 178.312 14.552C177.736 13.9333 177.448 13.1653 177.448 12.248C177.448 11.0747 177.874 10.1147 178.728 9.368C179.581 8.6 180.658 8.216 181.96 8.216C182.77 8.216 183.634 8.46133 184.552 8.952C184.658 9.016 184.744 9.048 184.808 9.048C184.957 9.048 185.053 8.89867 185.096 8.6C185.138 8.28 185.266 8.12 185.48 8.12C185.693 8.12 185.8 8.22667 185.8 8.44C185.8 8.48267 185.789 8.568 185.768 8.696C185.725 9.03733 185.704 9.47467 185.704 10.008C185.704 10.328 185.736 10.904 185.8 11.736C185.821 11.8213 185.832 11.9173 185.832 12.024C185.832 12.28 185.746 12.408 185.576 12.408C185.384 12.408 185.245 12.216 185.16 11.832C184.968 10.8933 184.573 10.1467 183.976 9.592C183.4 9.016 182.717 8.728 181.928 8.728C180.392 8.728 179.624 9.54933 179.624 11.192C179.624 11.9173 179.826 12.5147 180.232 12.984C180.445 13.24 180.68 13.4427 180.936 13.592C181.192 13.7413 181.938 14.1147 183.176 14.712C184.562 15.3947 185.544 16.056 186.12 16.696C186.696 17.3147 186.984 18.0507 186.984 18.904Z" fill="white"/>
</svg>
