<svg width="218" height="30" viewBox="0 0 218 30" fill="none" xmlns="http://www.w3.org/2000/svg">
<path d="M43.5938 9.43849C43.2524 8.97696 42.7957 8.67234 42.2236 8.34234C41.6514 8.01234 40.9688 7.8808 40.3966 7.8808C40.0553 7.8808 39.5986 7.8808 39.2548 7.98926C38.9111 8.09772 38.5697 8.20849 38.2284 8.4508C37.9085 8.64863 37.6364 8.90986 37.4303 9.21695C37.1985 9.53842 37.0789 9.92224 37.0889 10.3131C37.0842 10.6542 37.1624 10.9916 37.3173 11.2985C37.5457 11.6262 37.6587 11.8454 38.0024 12.0646C38.3462 12.2839 38.6875 12.5262 39.0288 12.6116C39.5096 12.72 39.9423 12.9393 40.399 13.0731C40.9907 13.305 41.6019 13.488 42.226 13.62C42.7957 13.8393 43.4808 14.167 43.9375 14.497C44.4466 14.8903 44.8725 15.3737 45.1923 15.9208C45.5337 16.4677 45.6731 17.2362 45.6731 18.1131C45.6731 19.0985 45.4447 19.867 45.1034 20.5246C44.762 21.1823 44.3053 21.84 43.7332 22.2785C43.1235 22.7354 42.4246 23.0704 41.6779 23.2639C40.8596 23.4804 40.0147 23.5906 39.1659 23.5916C38.024 23.5916 36.8822 23.3723 35.7404 22.9339C34.5986 22.4954 33.6851 21.9485 33 21.0716L35.2837 18.99C35.7644 19.537 36.3101 20.0862 37.1106 20.4139C37.9111 20.7416 38.5937 20.9608 39.2788 20.9608C39.6202 20.9608 40.0769 20.9608 40.4207 20.8523C40.7644 20.7439 41.2188 20.6331 41.4471 20.3908C41.6755 20.1485 42.0168 19.9293 42.2452 19.6246C42.4736 19.32 42.5865 18.8585 42.5865 18.42C42.5865 17.9816 42.4736 17.5431 42.2452 17.2154C42.0168 16.8877 41.6755 16.6685 41.3317 16.4493C40.9223 16.1727 40.4545 15.986 39.9615 15.9023C39.3894 15.817 38.9351 15.5746 38.363 15.3554C37.7909 15.1362 37.2212 15.0277 36.6514 14.8085C36.0817 14.5893 35.625 14.2616 35.1683 13.9316C34.7115 13.6016 34.3702 13.0546 34.1418 12.6162C33.9135 12.0693 33.8005 11.4116 33.8005 10.5346C33.8 9.73546 33.9951 8.94735 34.3702 8.23388C34.7086 7.60145 35.2217 7.07056 35.8534 6.69926C36.4231 6.23772 37.2236 5.93311 38.0216 5.71388C38.8006 5.49769 39.6074 5.38738 40.4183 5.38619C41.3317 5.38619 42.2452 5.60542 43.2716 5.84773C44.1851 6.17542 45.0986 6.61388 45.7837 7.27157L43.6154 9.46388M48.3918 7.35234C48.3918 6.8908 48.6202 6.47542 48.9615 6.14772C49.3029 5.82003 49.7596 5.6008 50.3317 5.6008C50.5867 5.599 50.8394 5.6465 51.0748 5.74046C51.3102 5.83443 51.5235 5.97293 51.7019 6.14772C51.8851 6.31823 52.0301 6.52283 52.1281 6.74901C52.2261 6.97519 52.2749 7.21818 52.2716 7.46311C52.2735 7.70785 52.224 7.95044 52.1262 8.17643C52.0283 8.40242 51.884 8.60718 51.7019 8.77849C51.5243 8.95436 51.3112 9.09358 51.0756 9.18762C50.84 9.28166 50.5869 9.32855 50.3317 9.32542C50.0768 9.32722 49.8241 9.27972 49.5887 9.18575C49.3533 9.09179 49.14 8.95328 48.9615 8.77849C48.4808 8.31695 48.3918 7.90157 48.3918 7.35465V7.35234ZM48.7332 11.407H51.8149V23.2454H48.7284L48.7332 11.407ZM67.9111 11.4139V22.1562C67.9168 23.1517 67.8022 24.1445 67.5697 25.1147C67.3414 25.9916 66.8846 26.7577 66.3149 27.307C65.7452 27.8562 65.0601 28.4031 64.1466 28.6223C63.2332 28.95 62.2067 29.0839 61.0649 29.0839C60.5841 29.0839 60.0385 29.0839 59.4664 28.9754C58.8942 28.867 58.3245 28.7562 57.7548 28.5139C57.1851 28.2716 56.7284 28.0523 56.1563 27.967C55.6755 27.7477 55.2428 27.42 54.7861 27.09L56.613 24.7893C57.1827 25.3362 57.8678 25.7746 58.6683 25.9939C59.4664 26.3216 60.1515 26.4554 60.9519 26.4554C61.637 26.4554 62.3221 26.347 62.7789 26.1277C63.2356 25.9085 63.6923 25.6662 64.0337 25.2508C64.375 24.9231 64.6034 24.4846 64.6034 23.9354C64.7163 23.3885 64.8317 22.95 64.8317 22.2923V21.4154C64.351 21.9623 63.8053 22.4008 63.1202 22.7308C62.4351 23.0608 61.637 23.1923 60.8365 23.1923C59.9231 23.1923 59.125 22.9731 58.3245 22.6454C57.524 22.3177 56.9543 21.8793 56.3846 21.33C55.8149 20.7808 55.4712 20.1254 55.1298 19.357C54.814 18.6285 54.6585 17.8451 54.6731 17.0562C54.6731 16.1793 54.7861 15.4131 55.0144 14.6446C55.2428 13.8762 55.6995 13.2208 56.2692 12.6716C56.8389 12.1223 57.4111 11.6862 58.2091 11.3562C59.0072 11.0262 59.8077 10.8093 60.7212 10.8093C61.6346 10.8093 62.4327 11.0285 63.2332 11.3562C64.0337 11.6839 64.6034 12.2331 65.0601 12.9993V11.2454L67.9111 11.4139ZM61.2885 13.4954C60.7188 13.4954 60.262 13.6039 59.8053 13.8231C59.3486 14.0423 59.0072 14.2846 58.6635 14.5893C58.3197 14.8939 58.0938 15.3554 57.9784 15.7939C57.8468 16.2588 57.7702 16.7364 57.75 17.2177C57.7607 17.6644 57.8376 18.1073 57.9784 18.5331C58.2067 18.9946 58.3197 19.41 58.6635 19.7377C59.0072 20.0654 59.3486 20.3954 59.8053 20.6146C60.262 20.8339 60.7188 20.9423 61.2885 20.9423C61.8582 20.9423 62.3149 20.8339 62.7716 20.6146C63.2284 20.3954 63.5697 20.1531 63.9135 19.8485C64.2572 19.5439 64.4832 19.0823 64.5986 18.6439C64.8269 18.1823 64.8269 17.767 64.8269 17.22C64.8269 16.6731 64.7139 16.2346 64.5986 15.7962C64.3702 15.3346 64.2572 14.9193 63.9135 14.5916C63.5697 14.2639 63.2284 14.0446 62.7716 13.8254C62.4303 13.6062 61.8582 13.4954 61.2885 13.4954ZM71.2236 11.4139H74.1923V13.2762C74.4207 12.6185 74.9904 12.18 75.5625 11.7416C76.1346 11.3031 77.0457 11.0839 77.9591 11.0839C78.7572 11.0839 79.4423 11.1923 80.0144 11.5454C80.5841 11.7646 81.0409 12.2031 81.3846 12.6416C81.7284 13.08 82.0697 13.627 82.1827 14.1762C82.4111 14.7231 82.4111 15.3808 82.4111 15.93V23.3839H79.3293V16.9177C79.3293 16.59 79.3293 16.26 79.2164 15.8216C79.1034 15.3831 78.988 15.0554 78.875 14.8362C78.762 14.5085 78.5337 14.2893 78.1899 14.07C77.8462 13.8508 77.5048 13.7423 76.9351 13.7423C76.3654 13.7423 76.0216 13.8508 75.6803 14.07C75.339 14.2893 74.9952 14.5316 74.7668 14.8362C74.5385 15.1408 74.4255 15.4939 74.1971 15.8216C73.9688 16.1493 73.9688 16.5877 73.9688 17.0262V23.6031H70.887L71.2284 11.437M93.6034 21.8216C93.262 22.3685 92.6899 22.807 92.0048 23.137C91.3197 23.467 90.5216 23.6839 89.7212 23.6839C89.2404 23.6839 88.6947 23.6839 88.1226 23.4647C87.5529 23.3562 87.0962 23.137 86.6394 22.9177C86.2038 22.6092 85.8189 22.2397 85.4976 21.8216C85.1563 21.36 85.0168 20.8362 85.0168 20.0677C85.0168 19.1908 85.2452 18.4246 85.8149 17.9862C86.3846 17.4393 87.0697 17.0008 87.8702 16.7816C88.6683 16.4539 89.5817 16.32 90.6106 16.2346L93.5793 16.1262V15.7985C93.5793 15.0323 93.351 14.4831 92.7813 14.1554C92.1615 13.7953 91.4504 13.6061 90.726 13.6085C90.0409 13.6085 89.4712 13.717 88.8991 14.07C88.3293 14.2893 87.7572 14.617 87.4159 15.0554L85.8173 13.0823C86.5024 12.4246 87.3005 11.9862 88.214 11.6585C89.1274 11.3308 90.0409 11.197 90.9543 11.197C92.0962 11.197 93.0096 11.3054 93.6947 11.6585C94.3798 12.0116 94.9495 12.3162 95.4063 12.8631C95.7476 13.3246 96.0914 13.8485 96.2043 14.5062C96.4327 15.0531 96.4327 15.7108 96.4327 16.26V23.4946H93.5793L93.6034 21.8216ZM93.6034 17.8985H91.3197C90.75 17.8985 90.2933 18.007 89.8365 18.1177C89.3798 18.2285 89.0385 18.4454 88.6947 18.6646C88.351 18.8839 88.214 19.2116 88.214 19.65C88.214 19.9777 88.2139 20.197 88.4423 20.3077C88.6707 20.4185 88.7837 20.6354 88.9231 20.7693C89.1515 20.8777 89.4039 20.9885 89.6082 20.9885C89.8125 20.9885 90.1779 21.097 90.4063 21.097C91.4327 21.097 92.2332 20.8777 92.8029 20.3308C93.3726 19.7839 93.601 19.0154 93.601 18.1385L93.6034 17.8985ZM99.6539 4.61542H102.736V23.25H99.6539V4.61542ZM122.238 9.46157C121.897 9.00003 121.44 8.69542 120.868 8.36542C120.183 8.03773 119.613 7.90388 119.041 7.90388C118.7 7.90388 118.243 7.90388 117.899 8.01234C117.555 8.1208 117.214 8.23157 116.873 8.47388C116.553 8.67171 116.281 8.93294 116.075 9.24003C115.843 9.5615 115.723 9.94532 115.733 10.3362C115.728 10.6772 115.807 11.0146 115.962 11.3216C116.12 11.6277 116.355 11.891 116.647 12.0877C116.988 12.307 117.332 12.5493 117.673 12.6346C118.154 12.7431 118.587 12.9623 119.043 13.0962C119.635 13.3281 120.246 13.5111 120.87 13.6431C121.486 13.8445 122.064 14.1407 122.582 14.52C123.063 14.85 123.495 15.397 123.837 15.9439C124.178 16.4908 124.317 17.2593 124.317 18.1362C124.317 19.1216 124.089 19.89 123.748 20.5477C123.406 21.2054 122.95 21.8631 122.377 22.3016C121.768 22.7585 121.069 23.0935 120.322 23.287C119.505 23.5108 118.659 23.6211 117.81 23.6146C116.668 23.6146 115.526 23.3954 114.272 22.957C113.13 22.4954 112.216 21.9716 111.531 21.0946L113.815 19.0131C114.296 19.56 114.841 20.1093 115.642 20.437C116.442 20.7646 117.125 20.9839 117.81 20.9839C118.151 20.9839 118.608 20.9839 118.952 20.8754C119.296 20.767 119.75 20.6562 119.978 20.4139C120.298 20.216 120.57 19.9548 120.776 19.6477C121.005 19.32 121.118 18.8816 121.118 18.4431C121.118 18.0046 121.005 17.5662 120.776 17.2385C120.548 16.9108 120.207 16.6916 119.863 16.4723C119.454 16.1958 118.986 16.0091 118.493 15.9254C118.012 15.7062 117.466 15.5977 116.894 15.3785C116.322 15.1593 115.752 15.0508 115.296 14.8316C114.726 14.6123 114.269 14.2846 113.813 13.9546C113.356 13.6246 113.014 13.0777 112.786 12.6393C112.558 12.0923 112.445 11.4346 112.445 10.5577C112.444 9.75854 112.639 8.97043 113.014 8.25695C113.353 7.62453 113.866 7.09364 114.498 6.72234C115.161 6.28536 115.893 5.95272 116.666 5.73696C117.445 5.52076 118.252 5.41046 119.063 5.40926C119.976 5.40926 120.889 5.62849 121.916 5.8708C122.829 6.19849 123.743 6.63695 124.428 7.29465L122.26 9.48696M135.62 14.7254C135.392 14.3977 135.05 14.1785 134.594 13.9593C134.13 13.7472 133.624 13.6353 133.111 13.6316C132.541 13.6316 132.084 13.74 131.627 13.9593C131.212 14.1614 130.858 14.4636 130.601 14.8362C130.339 15.2195 130.11 15.6223 129.916 16.0408C129.803 16.5023 129.688 16.9177 129.688 17.3562C129.688 17.7946 129.8 18.2331 129.916 18.6716C130.031 19.11 130.257 19.5485 130.601 19.8762C130.945 20.2039 131.286 20.5339 131.627 20.7531C132.108 20.9723 132.541 21.0808 133.111 21.0808C133.591 21.0808 134.024 20.9723 134.481 20.8616C134.962 20.6423 135.279 20.4 135.623 20.0954L137.563 21.9577C137.06 22.5406 136.383 22.9611 135.623 23.1623C134.825 23.49 134.024 23.6239 132.998 23.6239C132.084 23.6239 131.171 23.5154 130.373 23.1623C129.575 22.8093 128.889 22.5047 128.204 21.9577C127.519 21.4108 127.178 20.7531 126.834 19.9846C126.459 19.1543 126.265 18.259 126.264 17.3539C126.264 16.3685 126.493 15.6 126.834 14.7231C127.155 13.987 127.62 13.3171 128.204 12.75C128.776 12.2008 129.459 11.7646 130.26 11.5454C131.058 11.2177 131.858 11.0839 132.772 11.0839C133.685 11.0839 134.599 11.3031 135.397 11.6308C136.163 11.9384 136.861 12.385 137.452 12.9462L135.625 14.7M140.072 7.37542C140.072 6.91388 140.301 6.49849 140.642 6.1708C140.983 5.84311 141.44 5.62388 142.012 5.62388C142.267 5.62208 142.52 5.66958 142.755 5.76354C142.99 5.85751 143.204 5.99601 143.382 6.1708C143.565 6.3413 143.71 6.54591 143.808 6.77209C143.906 6.99827 143.955 7.24126 143.952 7.48619C143.954 7.73092 143.904 7.97352 143.806 8.19951C143.709 8.4255 143.564 8.63025 143.382 8.80157C142.901 9.12926 142.584 9.34849 142.012 9.34849C141.757 9.35029 141.504 9.30279 141.269 9.20883C141.034 9.11487 140.82 8.97636 140.642 8.80157C140.301 8.34003 140.072 7.92234 140.072 7.37542ZM140.553 11.43H143.635V23.2685H140.507L140.553 11.43ZM158.909 17.46V18.337H149.546C149.546 18.7985 149.659 19.1031 149.887 19.5416C150.115 19.8693 150.368 20.1993 150.685 20.4185C151.002 20.6377 151.37 20.88 151.827 20.9654C152.284 21.0508 152.625 21.1846 153.082 21.1846C153.88 21.1846 154.452 21.0762 155.022 20.7231C155.591 20.37 156.048 20.0654 156.276 19.627L158.332 21.27C157.077 22.9131 155.363 23.5708 153.079 23.5708C152.166 23.5708 151.252 23.4623 150.454 23.1093C149.656 22.7562 148.971 22.4516 148.399 21.9046C147.827 21.3577 147.373 20.7 147.029 19.9316C146.685 19.1631 146.548 18.2885 146.548 17.3008C146.548 16.3131 146.776 15.547 147.029 14.67C147.349 13.9339 147.814 13.264 148.399 12.697C148.971 12.1477 149.654 11.7116 150.454 11.3816C151.255 11.0516 152.053 10.92 153.079 10.92C153.901 10.906 154.717 11.0553 155.476 11.3585C156.189 11.5897 156.822 12.0068 157.303 12.5631C157.873 13.11 158.216 13.7677 158.558 14.5362C158.786 15.4131 158.899 16.3985 158.899 17.3862L158.909 17.46ZM155.827 16.1446C155.827 15.6831 155.827 15.3785 155.599 15.0485C155.486 14.7208 155.37 14.3908 155.029 14.1716C154.801 13.9523 154.459 13.71 154.115 13.5139C153.772 13.3177 153.317 13.2946 152.861 13.2946C151.947 13.2946 151.149 13.5139 150.464 14.0608C150.134 14.3055 149.869 14.6216 149.691 14.9834C149.512 15.3451 149.426 15.7423 149.438 16.1423L155.827 16.1446ZM161.649 11.4139H164.618V13.2762C164.846 12.6185 165.416 12.18 165.988 11.7416C166.673 11.28 167.471 11.0839 168.385 11.0839C169.183 11.0839 169.868 11.1923 170.44 11.5454C171.01 11.7646 171.466 12.2031 171.81 12.6416C172.154 13.08 172.495 13.627 172.608 14.1762C172.837 14.7231 172.837 15.3808 172.837 15.93V23.3839H169.76V16.9177C169.76 16.59 169.76 16.26 169.647 15.8216C169.647 15.36 169.418 15.0554 169.305 14.8362C169.077 14.5085 168.825 14.2893 168.62 14.07C168.416 13.8508 167.935 13.7423 167.365 13.7423C166.796 13.7423 166.452 13.8508 166.111 14.07C165.769 14.2893 165.425 14.5316 165.197 14.8362C164.969 15.1408 164.716 15.4939 164.627 15.8216C164.538 16.1493 164.399 16.5877 164.399 17.0262V23.6031H161.317L161.659 11.437M184.375 14.7C184.147 14.3723 183.805 14.1531 183.349 13.9339C182.885 13.7218 182.379 13.61 181.865 13.6062C181.296 13.6062 180.839 13.7146 180.382 13.9339C179.967 14.136 179.613 14.4382 179.356 14.8108C179.094 15.1941 178.865 15.5969 178.671 16.0154C178.558 16.477 178.442 16.8923 178.442 17.3308C178.442 17.7693 178.555 18.2077 178.671 18.6462C178.786 19.0846 179.012 19.5231 179.356 19.8508C179.7 20.1785 180.041 20.5085 180.382 20.7277C180.863 20.947 181.296 21.0554 181.865 21.0554C182.346 21.0554 182.779 20.947 183.236 20.8362C183.716 20.617 184.034 20.3746 184.377 20.07L186.317 21.9323C185.748 22.4793 185.176 22.9177 184.377 23.137C183.579 23.4646 182.779 23.5985 181.752 23.5985C180.839 23.5985 179.925 23.49 179.127 23.137C178.329 22.7839 177.644 22.4793 176.959 21.9323C176.274 21.3854 175.933 20.7277 175.589 19.9593C175.214 19.1289 175.02 18.2336 175.019 17.3285C175.019 16.3431 175.248 15.5746 175.589 14.6977C175.909 13.9616 176.375 13.2917 176.959 12.7246C177.531 12.1754 178.214 11.7393 179.014 11.52C179.813 11.1923 180.613 11.0585 181.526 11.0585C182.44 11.0585 183.353 11.2777 184.151 11.6054C184.918 11.913 185.616 12.3596 186.207 12.9208L184.38 14.6746M200.471 17.437V18.3139H191.108C191.108 18.7754 191.221 19.08 191.45 19.5185C191.678 19.8462 191.93 20.1762 192.248 20.3954C192.565 20.6146 192.933 20.857 193.389 20.9423C193.846 21.0277 194.188 21.1616 194.644 21.1616C195.442 21.1616 196.014 21.0531 196.584 20.7C197.154 20.347 197.611 20.0423 197.839 19.6039L199.894 21.247C198.639 22.89 196.925 23.5477 194.642 23.5477C193.728 23.5477 192.815 23.4393 192.017 23.0862C191.219 22.7331 190.534 22.4285 189.962 21.8816C189.389 21.3346 188.935 20.677 188.591 19.9085C188.248 19.14 188.111 18.2654 188.111 17.2777C188.111 16.29 188.339 15.5239 188.591 14.647C188.912 13.9108 189.377 13.2409 189.962 12.6739C190.534 12.1246 191.216 11.6885 192.017 11.3585C192.817 11.0285 193.615 10.897 194.642 10.897C195.464 10.8829 196.28 11.0322 197.038 11.3354C197.752 11.5666 198.385 11.9837 198.865 12.54C199.435 13.087 199.779 13.7446 200.12 14.5131C200.233 15.39 200.462 16.3754 200.462 17.3631L200.471 17.437ZM197.389 16.1216C197.389 15.66 197.389 15.3554 197.161 15.0254C197.048 14.6977 196.933 14.3677 196.591 14.1485C196.363 13.9293 196.022 13.687 195.678 13.4908C195.334 13.2946 194.88 13.2716 194.423 13.2716C193.51 13.2716 192.712 13.4908 192.026 14.0377C191.697 14.2824 191.432 14.5986 191.253 14.9603C191.075 15.3221 190.988 15.7192 191 16.1193L197.389 16.1216ZM210.519 14.5893C210.291 14.2616 209.834 13.9316 209.377 13.7123C208.921 13.4931 208.351 13.2508 207.779 13.2508C207.298 13.2508 206.865 13.3593 206.409 13.5785C205.952 13.7977 205.724 14.1254 205.724 14.5639C205.724 15.0023 205.952 15.33 206.409 15.5493C206.865 15.7685 207.55 16.0108 208.464 16.0962C208.945 16.2046 209.377 16.3154 209.834 16.5577L211.089 17.2154C211.477 17.4625 211.792 17.802 212.002 18.2008C212.231 18.6623 212.344 19.0777 212.344 19.6246C212.344 20.3908 212.231 20.94 211.863 21.487C211.635 22.0339 211.178 22.3639 210.721 22.6916C210.264 23.0193 209.695 23.2385 209.123 23.3493C208.551 23.46 207.868 23.5685 207.183 23.5685C206.269 23.5685 205.356 23.3493 204.329 23.0216C203.466 22.7188 202.685 22.2319 202.046 21.5977L204.101 19.7354C204.442 20.197 204.899 20.5016 205.471 20.8316C206.043 21.1616 206.613 21.2931 207.298 21.2931C207.526 21.2931 207.779 21.2931 207.983 21.1846C208.188 21.0762 208.464 21.0762 208.668 20.9654C208.872 20.8794 209.035 20.7229 209.125 20.527C209.238 20.3077 209.353 20.0654 209.353 19.8693C209.353 19.3223 209.125 18.9923 208.668 18.7731C208.013 18.4768 207.323 18.256 206.613 18.1154C206.132 18.007 205.7 17.8962 205.243 17.6539C204.786 17.4116 204.445 17.3262 204.101 17.107C203.757 16.8877 203.416 16.56 203.303 16.1216C203.075 15.66 202.962 15.2446 202.962 14.6977C202.962 14.04 203.075 13.4931 203.442 12.9439C203.671 12.4823 204.127 12.067 204.584 11.7393C205.041 11.4116 205.611 11.1923 206.183 11.0816C206.755 10.9708 207.325 10.8623 208.01 10.8623C208.923 10.8623 209.721 10.9708 210.635 11.3239C211.416 11.6043 212.12 12.0545 212.69 12.6393L210.522 14.6123" fill="white"/>
<path d="M24.2958 3.87142L20.7942 2.24151L18.8846 4.07477L22.2794 5.60222C22.0676 8.45456 21.006 14.9718 19.7327 18.4366C18.8838 20.8814 14.5349 23.733 12.4118 25.0571C11.6688 24.6504 10.6081 23.9363 9.54739 23.2238L18.6719 14.4643C20.1571 13.0385 20.1571 10.7977 18.6719 9.37119C17.1868 7.94463 14.8527 7.94541 13.3667 9.37119L9.6533 12.936C9.12375 13.4444 8.37993 13.4444 7.84957 12.936C7.63775 12.7327 7.53184 12.4277 7.53184 12.1211C7.53184 11.8145 7.63775 11.511 7.84957 11.3061L18.2483 1.3241C16.2328 0.610824 14.1097 0 12.4127 0C8.16811 0 0.954006 3.76975 0.635461 3.9731L0 4.17644V4.88972C0 7.6396 1.37928 15.2792 2.65264 19.1498C2.97037 19.9648 3.50155 20.7798 4.13783 21.5947L5.94156 19.8631C5.62383 19.3548 5.19856 18.8448 5.09265 18.3357C3.93252 14.8717 2.75774 8.35288 2.5451 5.50055C4.8792 4.37979 9.76002 2.24151 12.4127 2.24151C12.7304 2.24151 13.1557 2.24151 13.5801 2.34319L6.15256 9.47364C5.40956 10.1869 5.09183 11.1035 5.09183 12.0202C5.09183 12.9368 5.40956 13.8534 6.15256 14.5667C7.63775 15.9925 9.97184 15.9925 11.4578 14.5667L15.1712 11.0019C15.7008 10.4935 16.4446 10.4935 16.9749 11.0019C17.1868 11.2052 17.3986 11.5102 17.3986 11.8168C17.3986 12.1234 17.2927 12.4269 16.9749 12.6318L5.83483 23.3263C8.38156 25.4653 11.3519 27.1977 11.7764 27.4011L12.4118 27.7061L13.0473 27.4011C20.4741 23.5296 22.066 19.5581 22.1719 19.1498C23.4452 15.2784 24.8245 7.53793 24.8245 4.88972V4.17644L24.2958 3.87142Z" fill="white"/>
</svg>
